{
	"asset":{
		"generator":"Khronos glTF Blender I/O v4.1.63",
		"version":"2.0"
	},
	"scene":0,
	"scenes":[
		{
			"name":"Scene",
			"nodes":[
				1
			]
		}
	],
	"nodes":[
		{
			"mesh":0,
			"name":"EPick003",
			"rotation":[
				0,
				-1,
				0,
				4.371138828673793e-08
			],
			"translation":[
				-0.08760000020265579,
				0.07919999957084656,
				0.2678999900817871
			]
		},
		{
			"children":[
				0
			],
			"name":"coupling au poignet",
			"translation":[
				0.08760000020265579,
				-0.07919999957084656,
				-0.2678999900817871
			]
		}
	],
	"materials":[
		{
			"doubleSided":true,
			"name":"mat_0",
			"pbrMetallicRoughness":{
				"baseColorFactor":[
					0.5647115111351013,
					0.5332763195037842,
					0.5028864741325378,
					1
				]
			}
		},
		{
			"doubleSided":true,
			"name":"mat_1",
			"pbrMetallicRoughness":{
				"baseColorFactor":[
					0.07227185368537903,
					0.07227185368537903,
					0.07227185368537903,
					1
				]
			}
		},
		{
			"doubleSided":true,
			"name":"mat_2",
			"pbrMetallicRoughness":{
				"baseColorFactor":[
					0.0030352699104696512,
					0.0030352699104696512,
					0.0030352699104696512,
					1
				]
			}
		},
		{
			"doubleSided":true,
			"name":"mat_3",
			"pbrMetallicRoughness":{
				"baseColorFactor":[
					0.8962693810462952,
					0.8879231214523315,
					0.9130986332893372,
					1
				]
			}
		},
		{
			"doubleSided":true,
			"name":"mat_4",
			"pbrMetallicRoughness":{
				"baseColorFactor":[
					0.01032982300966978,
					0.01032982300966978,
					0.01032982300966978,
					1
				]
			}
		},
		{
			"doubleSided":true,
			"name":"mat_5",
			"pbrMetallicRoughness":{
				"baseColorFactor":[
					0.24228115379810333,
					0.262250691652298,
					0.262250691652298,
					1
				]
			}
		},
		{
			"doubleSided":true,
			"name":"mat_6",
			"pbrMetallicRoughness":{
				"baseColorFactor":[
					0.22322797775268555,
					0.22322797775268555,
					0.3049873411655426,
					1
				]
			}
		},
		{
			"doubleSided":true,
			"name":"mat_7",
			"pbrMetallicRoughness":{
				"baseColorFactor":[
					1,
					0.2158605307340622,
					0.05126945301890373,
					1
				]
			}
		},
		{
			"doubleSided":true,
			"name":"mat_8",
			"pbrMetallicRoughness":{
				"baseColorFactor":[
					0.3762621581554413,
					0.3762621581554413,
					0.3762621581554413,
					1
				]
			}
		},
		{
			"doubleSided":true,
			"name":"mat_9",
			"pbrMetallicRoughness":{
				"baseColorFactor":[
					0.21223075687885284,
					0.21223075687885284,
					0.21223075687885284,
					1
				]
			}
		}
	],
	"meshes":[
		{
			"name":"EPick003",
			"primitives":[
				{
					"attributes":{
						"POSITION":0,
						"NORMAL":1
					},
					"indices":2,
					"material":0
				},
				{
					"attributes":{
						"POSITION":3,
						"NORMAL":4
					},
					"indices":5,
					"material":1
				},
				{
					"attributes":{
						"POSITION":6,
						"NORMAL":7
					},
					"indices":8,
					"material":2
				},
				{
					"attributes":{
						"POSITION":9,
						"NORMAL":10
					},
					"indices":11,
					"material":3
				},
				{
					"attributes":{
						"POSITION":12,
						"NORMAL":13
					},
					"indices":14,
					"material":4
				},
				{
					"attributes":{
						"POSITION":15,
						"NORMAL":16
					},
					"indices":17,
					"material":5
				},
				{
					"attributes":{
						"POSITION":18,
						"NORMAL":19
					},
					"indices":20,
					"material":6
				},
				{
					"attributes":{
						"POSITION":21,
						"NORMAL":22
					},
					"indices":23,
					"material":7
				},
				{
					"attributes":{
						"POSITION":24,
						"NORMAL":25
					},
					"indices":26,
					"material":8
				},
				{
					"attributes":{
						"POSITION":27,
						"NORMAL":28
					},
					"indices":29,
					"material":9
				}
			]
		}
	],
	"accessors":[
		{
			"bufferView":0,
			"componentType":5126,
			"count":16273,
			"max":[
				0.03751162812113762,
				0.03174972161650658,
				0.0023990944027900696
			],
			"min":[
				-0.03748837113380432,
				-0.031750280410051346,
				-0.09677956998348236
			],
			"type":"VEC3"
		},
		{
			"bufferView":1,
			"componentType":5126,
			"count":16273,
			"type":"VEC3"
		},
		{
			"bufferView":2,
			"componentType":5123,
			"count":36876,
			"type":"SCALAR"
		},
		{
			"bufferView":3,
			"componentType":5126,
			"count":1176,
			"max":[
				0.033655669540166855,
				0.03369972109794617,
				0.0005204305052757263
			],
			"min":[
				-0.03363239765167236,
				-0.033700279891490936,
				-0.001879565417766571
			],
			"type":"VEC3"
		},
		{
			"bufferView":4,
			"componentType":5126,
			"count":1176,
			"type":"VEC3"
		},
		{
			"bufferView":5,
			"componentType":5123,
			"count":2970,
			"type":"SCALAR"
		},
		{
			"bufferView":6,
			"componentType":5126,
			"count":11295,
			"max":[
				0.037516672164201736,
				0.04149971902370453,
				2.0429491996765137e-05
			],
			"min":[
				-0.03749341145157814,
				-0.0415002778172493,
				-0.10227956622838974
			],
			"type":"VEC3"
		},
		{
			"bufferView":7,
			"componentType":5126,
			"count":11295,
			"type":"VEC3"
		},
		{
			"bufferView":8,
			"componentType":5123,
			"count":33249,
			"type":"SCALAR"
		},
		{
			"bufferView":9,
			"componentType":5126,
			"count":472,
			"max":[
				-0.032257433980703354,
				0.0038672154769301414,
				-0.001579567790031433
			],
			"min":[
				-0.03748837113380432,
				-0.0038677742704749107,
				-0.005579568445682526
			],
			"type":"VEC3"
		},
		{
			"bufferView":10,
			"componentType":5126,
			"count":472,
			"type":"VEC3"
		},
		{
			"bufferView":11,
			"componentType":5123,
			"count":1617,
			"type":"SCALAR"
		},
		{
			"bufferView":12,
			"componentType":5126,
			"count":570,
			"max":[
				0.03391806781291962,
				0.0339997224509716,
				-0.001879565417766571
			],
			"min":[
				-0.033894963562488556,
				-0.03400028124451637,
				-0.001879565417766571
			],
			"type":"VEC3"
		},
		{
			"bufferView":13,
			"componentType":5126,
			"count":570,
			"type":"VEC3"
		},
		{
			"bufferView":14,
			"componentType":5123,
			"count":1356,
			"type":"SCALAR"
		},
		{
			"bufferView":15,
			"componentType":5126,
			"count":54,
			"max":[
				0.0325116291642189,
				0.001992889679968357,
				0.0011204332113265991
			],
			"min":[
				0.028512008488178253,
				-0.0020002794917672873,
				-0.0002795681357383728
			],
			"type":"VEC3"
		},
		{
			"bufferView":16,
			"componentType":5126,
			"count":54,
			"type":"VEC3"
		},
		{
			"bufferView":17,
			"componentType":5123,
			"count":156,
			"type":"SCALAR"
		},
		{
			"bufferView":18,
			"componentType":5126,
			"count":2569,
			"max":[
				0.015251635573804379,
				0.015239754691720009,
				-0.1082795262336731
			],
			"min":[
				-0.015228361822664738,
				-0.015240242704749107,
				-0.13952624797821045
			],
			"type":"VEC3"
		},
		{
			"bufferView":19,
			"componentType":5126,
			"count":2569,
			"type":"VEC3"
		},
		{
			"bufferView":20,
			"componentType":5123,
			"count":11130,
			"type":"SCALAR"
		},
		{
			"bufferView":21,
			"componentType":5126,
			"count":210,
			"max":[
				0.005132656078785658,
				0.00508342869579792,
				-0.1082795262336731
			],
			"min":[
				-0.005109385121613741,
				-0.005083936266601086,
				-0.11520355939865112
			],
			"type":"VEC3"
		},
		{
			"bufferView":22,
			"componentType":5126,
			"count":210,
			"type":"VEC3"
		},
		{
			"bufferView":23,
			"componentType":5123,
			"count":624,
			"type":"SCALAR"
		},
		{
			"bufferView":24,
			"componentType":5126,
			"count":6618,
			"max":[
				0.006869640201330185,
				0.006813353393226862,
				-0.06736955791711807
			],
			"min":[
				-0.006846362724900246,
				-0.006833072751760483,
				-0.1308695673942566
			],
			"type":"VEC3"
		},
		{
			"bufferView":25,
			"componentType":5126,
			"count":6618,
			"type":"VEC3"
		},
		{
			"bufferView":26,
			"componentType":5123,
			"count":19728,
			"type":"SCALAR"
		},
		{
			"bufferView":27,
			"componentType":5126,
			"count":7455,
			"max":[
				0.00848836824297905,
				0.009815284982323647,
				-0.06769454479217529
			],
			"min":[
				-0.008511637337505817,
				-0.009814628399908543,
				-0.09169453382492065
			],
			"type":"VEC3"
		},
		{
			"bufferView":28,
			"componentType":5126,
			"count":7455,
			"type":"VEC3"
		},
		{
			"bufferView":29,
			"componentType":5123,
			"count":31386,
			"type":"SCALAR"
		}
	],
	"bufferViews":[
		{
			"buffer":0,
			"byteLength":195276,
			"byteOffset":0,
			"target":34962
		},
		{
			"buffer":0,
			"byteLength":195276,
			"byteOffset":195276,
			"target":34962
		},
		{
			"buffer":0,
			"byteLength":73752,
			"byteOffset":390552,
			"target":34963
		},
		{
			"buffer":0,
			"byteLength":14112,
			"byteOffset":464304,
			"target":34962
		},
		{
			"buffer":0,
			"byteLength":14112,
			"byteOffset":478416,
			"target":34962
		},
		{
			"buffer":0,
			"byteLength":5940,
			"byteOffset":492528,
			"target":34963
		},
		{
			"buffer":0,
			"byteLength":135540,
			"byteOffset":498468,
			"target":34962
		},
		{
			"buffer":0,
			"byteLength":135540,
			"byteOffset":634008,
			"target":34962
		},
		{
			"buffer":0,
			"byteLength":66498,
			"byteOffset":769548,
			"target":34963
		},
		{
			"buffer":0,
			"byteLength":5664,
			"byteOffset":836048,
			"target":34962
		},
		{
			"buffer":0,
			"byteLength":5664,
			"byteOffset":841712,
			"target":34962
		},
		{
			"buffer":0,
			"byteLength":3234,
			"byteOffset":847376,
			"target":34963
		},
		{
			"buffer":0,
			"byteLength":6840,
			"byteOffset":850612,
			"target":34962
		},
		{
			"buffer":0,
			"byteLength":6840,
			"byteOffset":857452,
			"target":34962
		},
		{
			"buffer":0,
			"byteLength":2712,
			"byteOffset":864292,
			"target":34963
		},
		{
			"buffer":0,
			"byteLength":648,
			"byteOffset":867004,
			"target":34962
		},
		{
			"buffer":0,
			"byteLength":648,
			"byteOffset":867652,
			"target":34962
		},
		{
			"buffer":0,
			"byteLength":312,
			"byteOffset":868300,
			"target":34963
		},
		{
			"buffer":0,
			"byteLength":30828,
			"byteOffset":868612,
			"target":34962
		},
		{
			"buffer":0,
			"byteLength":30828,
			"byteOffset":899440,
			"target":34962
		},
		{
			"buffer":0,
			"byteLength":22260,
			"byteOffset":930268,
			"target":34963
		},
		{
			"buffer":0,
			"byteLength":2520,
			"byteOffset":952528,
			"target":34962
		},
		{
			"buffer":0,
			"byteLength":2520,
			"byteOffset":955048,
			"target":34962
		},
		{
			"buffer":0,
			"byteLength":1248,
			"byteOffset":957568,
			"target":34963
		},
		{
			"buffer":0,
			"byteLength":79416,
			"byteOffset":958816,
			"target":34962
		},
		{
			"buffer":0,
			"byteLength":79416,
			"byteOffset":1038232,
			"target":34962
		},
		{
			"buffer":0,
			"byteLength":39456,
			"byteOffset":1117648,
			"target":34963
		},
		{
			"buffer":0,
			"byteLength":89460,
			"byteOffset":1157104,
			"target":34962
		},
		{
			"buffer":0,
			"byteLength":89460,
			"byteOffset":1246564,
			"target":34962
		},
		{
			"buffer":0,
			"byteLength":62772,
			"byteOffset":1336024,
			"target":34963
		}
	],
	"buffers":[
		{
			"byteLength":1398796,
			"uri":"E-Pick.bin"
		}
	]
}
