{
	"asset":{
		"generator":"Khronos glTF Blender I/O v4.1.63",
		"version":"2.0"
	},
	"scene":0,
	"scenes":[
		{
			"name":"Scene",
			"nodes":[
				17,
				18
			]
		}
	],
	"nodes":[
		{
			"mesh":0,
			"name":"Gripper, Base Plate"
		},
		{
			"children":[
				0
			],
			"name":"occurrence of Gripper, Base Plate",
			"rotation":[
				0.70710688829422,
				0,
				0,
				0.7071066498756409
			],
			"translation":[
				0.00011836335033876821,
				0,
				0.09000000357627869
			]
		},
		{
			"mesh":1,
			"name":"Gripper, Cable Assy"
		},
		{
			"children":[
				2
			],
			"name":"occurrence of Gripper, Cable Assy",
			"rotation":[
				0.70710688829422,
				0,
				0,
				0.7071066498756409
			],
			"translation":[
				0.00011836335033876821,
				0,
				0.09000000357627869
			]
		},
		{
			"mesh":2,
			"name":"Gripper, Circuit Card"
		},
		{
			"children":[
				4
			],
			"name":"occurrence of Gripper, Circuit Card",
			"rotation":[
				0.70710688829422,
				0,
				0,
				0.7071066498756409
			],
			"translation":[
				0.00011836335033876821,
				0,
				0.09000000357627869
			]
		},
		{
			"children":[
				1,
				3,
				5
			],
			"name":"Assembly 1 (1) <1>"
		},
		{
			"mesh":3,
			"name":"Group1^2-Finger_85_Adaptive_Gripper"
		},
		{
			"children":[
				7
			],
			"name":"occurrence of Group1^2-Finger_85_Adaptive_Gripper",
			"rotation":[
				0.70710688829422,
				0,
				0,
				0.7071066498756409
			],
			"translation":[
				0.00011836335033876821,
				0,
				0.08988749980926514
			]
		},
		{
			"mesh":4,
			"name":"Group6^2-Finger_85_Adaptive_Gripper"
		},
		{
			"children":[
				9
			],
			"name":"occurrence of Group6^2-Finger_85_Adaptive_Gripper",
			"translation":[
				0.00011836335033876821,
				0,
				0.08588749915361404
			]
		},
		{
			"mesh":5,
			"name":"Group7^2-Finger_85_Adaptive_Gripper"
		},
		{
			"children":[
				11
			],
			"name":"occurrence of Group7^2-Finger_85_Adaptive_Gripper",
			"rotation":[
				0.70710688829422,
				0,
				0,
				0.7071066498756409
			],
			"translation":[
				0.023118363693356514,
				0,
				0.08988749980926514
			]
		},
		{
			"mesh":5,
			"name":"Group7^2-Finger_85_Adaptive_Gripper.001"
		},
		{
			"children":[
				13
			],
			"name":"occurrence of Group7^2-Finger_85_Adaptive_Gripper.001",
			"rotation":[
				0.70710688829422,
				0,
				0,
				0.7071066498756409
			],
			"translation":[
				0.00011836335033876821,
				0,
				0.08988749980926514
			]
		},
		{
			"mesh":5,
			"name":"Group7^2-Finger_85_Adaptive_Gripper.002"
		},
		{
			"children":[
				15
			],
			"name":"occurrence of Group7^2-Finger_85_Adaptive_Gripper.002",
			"rotation":[
				0.70710688829422,
				0,
				0,
				0.7071066498756409
			],
			"translation":[
				0.023118363693356514,
				0.012000174261629581,
				0.08988749980926514
			]
		},
		{
			"children":[
				6,
				8,
				10,
				12,
				14,
				16
			],
			"name":"Robotiq Gripper, 85mm Copy 1"
		},
		{
			"mesh":5,
			"name":"Group7^2-Finger_85_Adaptive_Gripper.003"
		}
	],
	"materials":[
		{
			"doubleSided":true,
			"name":"0.529412_0.568627_0.600000_0.000000_0.000000",
			"pbrMetallicRoughness":{
				"baseColorFactor":[
					0.529411792755127,
					0.5686274766921997,
					0.6000000238418579,
					1
				],
				"metallicFactor":0
			}
		},
		{
			"doubleSided":true,
			"name":"1.000000_0.756863_0.054902_0.000000_0.000000",
			"pbrMetallicRoughness":{
				"baseColorFactor":[
					1,
					0.7568627595901489,
					0.054901961237192154,
					1
				],
				"metallicFactor":0
			}
		},
		{
			"doubleSided":true,
			"name":"0.105882_0.372549_0.666667_0.000000_0.000000",
			"pbrMetallicRoughness":{
				"baseColorFactor":[
					0.10588235408067703,
					0.37254902720451355,
					0.6666666865348816,
					1
				],
				"metallicFactor":0
			}
		},
		{
			"doubleSided":true,
			"name":"0.796078_0.823529_0.937255_0.000000_0.000000",
			"pbrMetallicRoughness":{
				"baseColorFactor":[
					0.7960784435272217,
					0.8235294222831726,
					0.9372549057006836,
					1
				],
				"metallicFactor":0
			}
		},
		{
			"doubleSided":true,
			"name":"0.898039_0.917647_0.929412_0.000000_0.000000",
			"pbrMetallicRoughness":{
				"baseColorFactor":[
					0.8980392217636108,
					0.9176470637321472,
					0.929411768913269,
					1
				],
				"metallicFactor":0
			}
		},
		{
			"doubleSided":true,
			"name":"1.000000_1.000000_1.000000_0.000000_0.000000",
			"pbrMetallicRoughness":{
				"metallicFactor":0
			}
		}
	],
	"meshes":[
		{
			"name":"mesh1074_mesh",
			"primitives":[
				{
					"attributes":{
						"POSITION":0,
						"NORMAL":1,
						"TEXCOORD_0":2
					},
					"indices":3,
					"material":0
				}
			]
		},
		{
			"name":"mesh1046_mesh",
			"primitives":[
				{
					"attributes":{
						"POSITION":4,
						"NORMAL":5,
						"TEXCOORD_0":6
					},
					"indices":7,
					"material":1
				}
			]
		},
		{
			"name":"mesh1060_mesh",
			"primitives":[
				{
					"attributes":{
						"POSITION":8,
						"NORMAL":9,
						"TEXCOORD_0":10
					},
					"indices":11,
					"material":2
				}
			]
		},
		{
			"name":"mesh125_mesh",
			"primitives":[
				{
					"attributes":{
						"POSITION":12,
						"NORMAL":13,
						"TEXCOORD_0":14
					},
					"indices":15,
					"material":3
				}
			]
		},
		{
			"name":"mesh962_mesh",
			"primitives":[
				{
					"attributes":{
						"POSITION":16,
						"NORMAL":17,
						"TEXCOORD_0":18
					},
					"indices":19,
					"material":4
				}
			]
		},
		{
			"name":"mesh0_mesh",
			"primitives":[
				{
					"attributes":{
						"POSITION":20,
						"NORMAL":21,
						"TEXCOORD_0":22
					},
					"indices":23,
					"material":5
				}
			]
		}
	],
	"accessors":[
		{
			"bufferView":0,
			"componentType":5126,
			"count":14402,
			"max":[
				0.03750000149011612,
				-0.0869000032544136,
				0.03750000149011612
			],
			"min":[
				-0.03750000149011612,
				-0.10100000351667404,
				-0.03750000149011612
			],
			"type":"VEC3"
		},
		{
			"bufferView":1,
			"componentType":5126,
			"count":14402,
			"type":"VEC3"
		},
		{
			"bufferView":2,
			"componentType":5126,
			"count":14402,
			"type":"VEC2"
		},
		{
			"bufferView":3,
			"componentType":5123,
			"count":35742,
			"type":"SCALAR"
		},
		{
			"bufferView":4,
			"componentType":5126,
			"count":12193,
			"max":[
				0.0022363332100212574,
				-0.09203152358531952,
				0.0029725581407546997
			],
			"min":[
				-0.05491366609930992,
				-0.0977550745010376,
				-0.0036551393568515778
			],
			"type":"VEC3"
		},
		{
			"bufferView":5,
			"componentType":5126,
			"count":12193,
			"type":"VEC3"
		},
		{
			"bufferView":6,
			"componentType":5126,
			"count":12193,
			"type":"VEC2"
		},
		{
			"bufferView":7,
			"componentType":5123,
			"count":66522,
			"type":"SCALAR"
		},
		{
			"bufferView":8,
			"componentType":5126,
			"count":1059,
			"max":[
				0.025127390399575233,
				-0.09300000220537186,
				0.01427179854363203
			],
			"min":[
				-0.0041136667132377625,
				-0.0949999988079071,
				-0.007899541407823563
			],
			"type":"VEC3"
		},
		{
			"bufferView":9,
			"componentType":5126,
			"count":1059,
			"type":"VEC3"
		},
		{
			"bufferView":10,
			"componentType":5126,
			"count":1059,
			"type":"VEC2"
		},
		{
			"bufferView":11,
			"componentType":5123,
			"count":2352,
			"type":"SCALAR"
		},
		{
			"bufferView":12,
			"componentType":5126,
			"count":99668,
			"max":[
				0.04244328662753105,
				-0.0003360058763064444,
				0.03750000149011612
			],
			"min":[
				-0.04244328662753105,
				-0.09399999678134918,
				-0.03750000149011612
			],
			"type":"VEC3"
		},
		{
			"bufferView":13,
			"componentType":5126,
			"count":99668,
			"type":"VEC3"
		},
		{
			"bufferView":14,
			"componentType":5126,
			"count":99668,
			"type":"VEC2"
		},
		{
			"bufferView":15,
			"componentType":5125,
			"count":362610,
			"type":"SCALAR"
		},
		{
			"bufferView":16,
			"componentType":5126,
			"count":4736,
			"max":[
				0.01549999974668026,
				0.009999999776482582,
				0.004000000189989805
			],
			"min":[
				-0.01549999974668026,
				-0.009999999776482582,
				-2.2251607223158754e-18
			],
			"type":"VEC3"
		},
		{
			"bufferView":17,
			"componentType":5126,
			"count":4736,
			"type":"VEC3"
		},
		{
			"bufferView":18,
			"componentType":5126,
			"count":4736,
			"type":"VEC2"
		},
		{
			"bufferView":19,
			"componentType":5123,
			"count":14100,
			"type":"SCALAR"
		},
		{
			"bufferView":20,
			"componentType":5126,
			"count":13110,
			"max":[
				-0.008750000037252903,
				1.001007528142429e-14,
				0.008750000037252903
			],
			"min":[
				-0.01425000000745058,
				-0.012000000104308128,
				0.0032500000670552254
			],
			"type":"VEC3"
		},
		{
			"bufferView":21,
			"componentType":5126,
			"count":13110,
			"type":"VEC3"
		},
		{
			"bufferView":22,
			"componentType":5126,
			"count":13110,
			"type":"VEC2"
		},
		{
			"bufferView":23,
			"componentType":5123,
			"count":69186,
			"type":"SCALAR"
		}
	],
	"bufferViews":[
		{
			"buffer":0,
			"byteLength":172824,
			"byteOffset":0,
			"target":34962
		},
		{
			"buffer":0,
			"byteLength":172824,
			"byteOffset":172824,
			"target":34962
		},
		{
			"buffer":0,
			"byteLength":115216,
			"byteOffset":345648,
			"target":34962
		},
		{
			"buffer":0,
			"byteLength":71484,
			"byteOffset":460864,
			"target":34963
		},
		{
			"buffer":0,
			"byteLength":146316,
			"byteOffset":532348,
			"target":34962
		},
		{
			"buffer":0,
			"byteLength":146316,
			"byteOffset":678664,
			"target":34962
		},
		{
			"buffer":0,
			"byteLength":97544,
			"byteOffset":824980,
			"target":34962
		},
		{
			"buffer":0,
			"byteLength":133044,
			"byteOffset":922524,
			"target":34963
		},
		{
			"buffer":0,
			"byteLength":12708,
			"byteOffset":1055568,
			"target":34962
		},
		{
			"buffer":0,
			"byteLength":12708,
			"byteOffset":1068276,
			"target":34962
		},
		{
			"buffer":0,
			"byteLength":8472,
			"byteOffset":1080984,
			"target":34962
		},
		{
			"buffer":0,
			"byteLength":4704,
			"byteOffset":1089456,
			"target":34963
		},
		{
			"buffer":0,
			"byteLength":1196016,
			"byteOffset":1094160,
			"target":34962
		},
		{
			"buffer":0,
			"byteLength":1196016,
			"byteOffset":2290176,
			"target":34962
		},
		{
			"buffer":0,
			"byteLength":797344,
			"byteOffset":3486192,
			"target":34962
		},
		{
			"buffer":0,
			"byteLength":1450440,
			"byteOffset":4283536,
			"target":34963
		},
		{
			"buffer":0,
			"byteLength":56832,
			"byteOffset":5733976,
			"target":34962
		},
		{
			"buffer":0,
			"byteLength":56832,
			"byteOffset":5790808,
			"target":34962
		},
		{
			"buffer":0,
			"byteLength":37888,
			"byteOffset":5847640,
			"target":34962
		},
		{
			"buffer":0,
			"byteLength":28200,
			"byteOffset":5885528,
			"target":34963
		},
		{
			"buffer":0,
			"byteLength":157320,
			"byteOffset":5913728,
			"target":34962
		},
		{
			"buffer":0,
			"byteLength":157320,
			"byteOffset":6071048,
			"target":34962
		},
		{
			"buffer":0,
			"byteLength":104880,
			"byteOffset":6228368,
			"target":34962
		},
		{
			"buffer":0,
			"byteLength":138372,
			"byteOffset":6333248,
			"target":34963
		}
	],
	"buffers":[
		{
			"byteLength":6471620,
			"uri":"GripperBase.bin"
		}
	]
}
