{
	"asset":{
		"generator":"Khronos glTF Blender I/O v4.1.63",
		"version":"2.0"
	},
	"scene":0,
	"scenes":[
		{
			"name":"Scene",
			"nodes":[
				10
			]
		}
	],
	"nodes":[
		{
			"mesh":0,
			"name":"Group2^2-Finger_85_Adaptive_Gripper.001"
		},
		{
			"children":[
				0
			],
			"name":"occurrence of Group2^2-Finger_85_Adaptive_Gripper.001",
			"rotation":[
				0.6644630432128906,
				-0.2418447881937027,
				0.2418447881937027,
				0.6644629836082458
			],
			"translation":[
				-0.01258163619786501,
				-0.0010252152569592,
				0.061307501047849655
			]
		},
		{
			"mesh":1,
			"name":"Group3^2-Finger_85_Adaptive_Gripper"
		},
		{
			"children":[
				2
			],
			"name":"occurrence of Group3^2-Finger_85_Adaptive_Gripper",
			"rotation":[
				0.70710688829422,
				0,
				0,
				0.7071066498756409
			],
			"translation":[
				0.0009835861856117845,
				-0.0005198894068598747,
				0.09062834084033966
			]
		},
		{
			"mesh":2,
			"name":"Group4^2-Finger_85_Adaptive_Gripper"
		},
		{
			"children":[
				4
			],
			"name":"occurrence of Group4^2-Finger_85_Adaptive_Gripper",
			"rotation":[
				0.7070716619491577,
				0.00704647833481431,
				-0.007046478800475597,
				0.7070716619491577
			],
			"translation":[
				0.0008117196848616004,
				-1.188940314023057e-05,
				0.08927066624164581
			]
		},
		{
			"mesh":3,
			"name":"Group5^2-Finger_85_Adaptive_Gripper.001"
		},
		{
			"children":[
				6
			],
			"name":"occurrence of Group5^2-Finger_85_Adaptive_Gripper.001",
			"rotation":[
				-0.007046478800475597,
				-0.7070716619491577,
				-0.7070716619491577,
				0.007046478800475597
			],
			"translation":[
				0.0008117196848616004,
				-2.5226188881788403e-05,
				0.08927066624164581
			]
		},
		{
			"mesh":4,
			"name":"Part 2"
		},
		{
			"children":[
				8
			],
			"name":"occurrence of Part 2",
			"rotation":[
				-3.135840961476788e-05,
				-0.7071068286895752,
				-0.7071068286895752,
				3.135842416668311e-05
			],
			"translation":[
				-0.09126876294612885,
				-0.0005198894068598747,
				0.09063241630792618
			]
		},
		{
			"children":[
				1,
				3,
				5,
				7,
				9
			],
			"name":"Robotiq Gripper, 85mm Copy 1"
		}
	],
	"materials":[
		{
			"doubleSided":true,
			"name":"0.078431_0.349020_0.917647_0.000000_0.000000",
			"pbrMetallicRoughness":{
				"baseColorFactor":[
					0.0784313753247261,
					0.3490196168422699,
					0.9176470637321472,
					1
				],
				"metallicFactor":0
			}
		},
		{
			"doubleSided":true,
			"name":"0.792157_0.819608_0.933333_0.000000_0.000000",
			"pbrMetallicRoughness":{
				"baseColorFactor":[
					0.7921568751335144,
					0.8196078538894653,
					0.9333333373069763,
					1
				],
				"metallicFactor":0
			}
		},
		{
			"doubleSided":true,
			"name":"1.000000_0.756863_0.054902_0.000000_0.000000",
			"pbrMetallicRoughness":{
				"baseColorFactor":[
					1,
					0.7568627595901489,
					0.054901961237192154,
					1
				],
				"metallicFactor":0
			}
		}
	],
	"meshes":[
		{
			"name":"mesh73_mesh",
			"primitives":[
				{
					"attributes":{
						"POSITION":0,
						"NORMAL":1,
						"TEXCOORD_0":2
					},
					"indices":3,
					"material":0
				}
			]
		},
		{
			"name":"mesh901_mesh",
			"primitives":[
				{
					"attributes":{
						"POSITION":4,
						"NORMAL":5,
						"TEXCOORD_0":6
					},
					"indices":7,
					"material":0
				}
			]
		},
		{
			"name":"mesh27_mesh",
			"primitives":[
				{
					"attributes":{
						"POSITION":8,
						"NORMAL":9,
						"TEXCOORD_0":10
					},
					"indices":11,
					"material":1
				}
			]
		},
		{
			"name":"mesh992_mesh",
			"primitives":[
				{
					"attributes":{
						"POSITION":12,
						"NORMAL":13,
						"TEXCOORD_0":14
					},
					"indices":15,
					"material":0
				}
			]
		},
		{
			"name":"mesh1027_mesh",
			"primitives":[
				{
					"attributes":{
						"POSITION":16,
						"NORMAL":17,
						"TEXCOORD_0":18
					},
					"indices":19,
					"material":2
				}
			]
		}
	],
	"accessors":[
		{
			"bufferView":0,
			"componentType":5126,
			"count":8371,
			"max":[
				0.006000000052154064,
				0.06315000355243683,
				0.019500000402331352
			],
			"min":[
				-0.006000000052154064,
				-0.005998610984534025,
				-0.019500000402331352
			],
			"type":"VEC3"
		},
		{
			"bufferView":1,
			"componentType":5126,
			"count":8371,
			"type":"VEC3"
		},
		{
			"bufferView":2,
			"componentType":5126,
			"count":8371,
			"type":"VEC2"
		},
		{
			"bufferView":3,
			"componentType":5123,
			"count":24444,
			"type":"SCALAR"
		},
		{
			"bufferView":4,
			"componentType":5126,
			"count":12844,
			"max":[
				-0.04430021718144417,
				0.05245879665017128,
				0.007499999832361937
			],
			"min":[
				-0.07420196384191513,
				0.0019439312163740396,
				-0.007499999832361937
			],
			"type":"VEC3"
		},
		{
			"bufferView":5,
			"componentType":5126,
			"count":12844,
			"type":"VEC3"
		},
		{
			"bufferView":6,
			"componentType":5126,
			"count":12844,
			"type":"VEC2"
		},
		{
			"bufferView":7,
			"componentType":5123,
			"count":31140,
			"type":"SCALAR"
		},
		{
			"bufferView":8,
			"componentType":5126,
			"count":7941,
			"max":[
				-0.056087199598550797,
				0.013943920843303204,
				0.013500000350177288
			],
			"min":[
				-0.07420195639133453,
				-0.045180998742580414,
				-0.013500000350177288
			],
			"type":"VEC3"
		},
		{
			"bufferView":9,
			"componentType":5126,
			"count":7941,
			"type":"VEC3"
		},
		{
			"bufferView":10,
			"componentType":5126,
			"count":7941,
			"type":"VEC2"
		},
		{
			"bufferView":11,
			"componentType":5123,
			"count":22620,
			"type":"SCALAR"
		},
		{
			"bufferView":12,
			"componentType":5126,
			"count":5033,
			"max":[
				0.0693739578127861,
				-0.02223472110927105,
				0.012000000104308128
			],
			"min":[
				0.02310132049024105,
				-0.045179788023233414,
				-0.012000000104308128
			],
			"type":"VEC3"
		},
		{
			"bufferView":13,
			"componentType":5126,
			"count":5033,
			"type":"VEC3"
		},
		{
			"bufferView":14,
			"componentType":5126,
			"count":5033,
			"type":"VEC2"
		},
		{
			"bufferView":15,
			"componentType":5123,
			"count":14142,
			"type":"SCALAR"
		},
		{
			"bufferView":16,
			"componentType":5126,
			"count":5965,
			"max":[
				-0.04294852167367935,
				0.059558507055044174,
				0.01269999984651804
			],
			"min":[
				-0.04930021986365318,
				0.02145829051733017,
				-0.01269999984651804
			],
			"type":"VEC3"
		},
		{
			"bufferView":17,
			"componentType":5126,
			"count":5965,
			"type":"VEC3"
		},
		{
			"bufferView":18,
			"componentType":5126,
			"count":5965,
			"type":"VEC2"
		},
		{
			"bufferView":19,
			"componentType":5123,
			"count":22896,
			"type":"SCALAR"
		}
	],
	"bufferViews":[
		{
			"buffer":0,
			"byteLength":100452,
			"byteOffset":0,
			"target":34962
		},
		{
			"buffer":0,
			"byteLength":100452,
			"byteOffset":100452,
			"target":34962
		},
		{
			"buffer":0,
			"byteLength":66968,
			"byteOffset":200904,
			"target":34962
		},
		{
			"buffer":0,
			"byteLength":48888,
			"byteOffset":267872,
			"target":34963
		},
		{
			"buffer":0,
			"byteLength":154128,
			"byteOffset":316760,
			"target":34962
		},
		{
			"buffer":0,
			"byteLength":154128,
			"byteOffset":470888,
			"target":34962
		},
		{
			"buffer":0,
			"byteLength":102752,
			"byteOffset":625016,
			"target":34962
		},
		{
			"buffer":0,
			"byteLength":62280,
			"byteOffset":727768,
			"target":34963
		},
		{
			"buffer":0,
			"byteLength":95292,
			"byteOffset":790048,
			"target":34962
		},
		{
			"buffer":0,
			"byteLength":95292,
			"byteOffset":885340,
			"target":34962
		},
		{
			"buffer":0,
			"byteLength":63528,
			"byteOffset":980632,
			"target":34962
		},
		{
			"buffer":0,
			"byteLength":45240,
			"byteOffset":1044160,
			"target":34963
		},
		{
			"buffer":0,
			"byteLength":60396,
			"byteOffset":1089400,
			"target":34962
		},
		{
			"buffer":0,
			"byteLength":60396,
			"byteOffset":1149796,
			"target":34962
		},
		{
			"buffer":0,
			"byteLength":40264,
			"byteOffset":1210192,
			"target":34962
		},
		{
			"buffer":0,
			"byteLength":28284,
			"byteOffset":1250456,
			"target":34963
		},
		{
			"buffer":0,
			"byteLength":71580,
			"byteOffset":1278740,
			"target":34962
		},
		{
			"buffer":0,
			"byteLength":71580,
			"byteOffset":1350320,
			"target":34962
		},
		{
			"buffer":0,
			"byteLength":47720,
			"byteOffset":1421900,
			"target":34962
		},
		{
			"buffer":0,
			"byteLength":45792,
			"byteOffset":1469620,
			"target":34963
		}
	],
	"buffers":[
		{
			"byteLength":1515412,
			"uri":"GripperFinger1.bin"
		}
	]
}
