{
	"asset":{
		"generator":"Khronos glTF Blender I/O v4.1.63",
		"version":"2.0"
	},
	"scene":0,
	"scenes":[
		{
			"name":"Scene",
			"nodes":[
				1
			]
		}
	],
	"nodes":[
		{
			"mesh":0,
			"name":"Link5_UR5_STEP001",
			"rotation":[
				0.3535533845424652,
				0.6123724579811096,
				0.6123723983764648,
				0.3535533845424652
			]
		},
		{
			"children":[
				0
			],
			"name":"Unnamed"
		}
	],
	"materials":[
		{
			"doubleSided":true,
			"name":"mat_1",
			"pbrMetallicRoughness":{
				"baseColorFactor":[
					0.19806931912899017,
					0.5906188488006592,
					1,
					1
				]
			}
		},
		{
			"doubleSided":true,
			"name":"mat_2",
			"pbrMetallicRoughness":{
				"baseColorFactor":[
					1,
					1,
					0.2158605307340622,
					1
				]
			}
		},
		{
			"doubleSided":true,
			"name":"mat_3",
			"pbrMetallicRoughness":{
				"baseColorFactor":[
					0.7835378050804138,
					0.7835378050804138,
					0.7835378050804138,
					1
				]
			}
		},
		{
			"doubleSided":true,
			"name":"mat_4",
			"pbrMetallicRoughness":{
				"baseColorFactor":[
					0.5906188488006592,
					0.6375969052314758,
					0.8549926280975342,
					1
				]
			}
		},
		{
			"doubleSided":true,
			"name":"mat_5",
			"pbrMetallicRoughness":{
				"baseColorFactor":[
					0.5271151661872864,
					0.5271151661872864,
					0.5271151661872864,
					1
				]
			}
		},
		{
			"doubleSided":true,
			"name":"mat_6",
			"pbrMetallicRoughness":{
				"baseColorFactor":[
					0.05126945301890373,
					0.05126945301890373,
					0.05126945301890373,
					1
				]
			}
		},
		{
			"doubleSided":true,
			"name":"mat_0",
			"pbrMetallicRoughness":{
				"baseColorFactor":[
					0.12213877588510513,
					0.12213877588510513,
					0.12213877588510513,
					1
				]
			}
		}
	],
	"meshes":[
		{
			"name":"Link5_UR5_STEP001",
			"primitives":[
				{
					"attributes":{
						"POSITION":0,
						"NORMAL":1
					},
					"indices":2,
					"material":0
				},
				{
					"attributes":{
						"POSITION":3,
						"NORMAL":4
					},
					"indices":5,
					"material":1
				},
				{
					"attributes":{
						"POSITION":6,
						"NORMAL":7
					},
					"indices":8,
					"material":2
				},
				{
					"attributes":{
						"POSITION":9,
						"NORMAL":10
					},
					"indices":11,
					"material":3
				},
				{
					"attributes":{
						"POSITION":12,
						"NORMAL":13
					},
					"indices":14,
					"material":4
				},
				{
					"attributes":{
						"POSITION":15,
						"NORMAL":16
					},
					"indices":17,
					"material":5
				},
				{
					"attributes":{
						"POSITION":18,
						"NORMAL":19
					},
					"indices":20,
					"material":6
				}
			]
		}
	],
	"accessors":[
		{
			"bufferView":0,
			"componentType":5126,
			"count":6296,
			"max":[
				0.03835234418511391,
				-0.006753746420145035,
				0.038710080087184906
			],
			"min":[
				-0.040261056274175644,
				-0.05597037449479103,
				-0.03978947550058365
			],
			"type":"VEC3"
		},
		{
			"bufferView":1,
			"componentType":5126,
			"count":6296,
			"type":"VEC3"
		},
		{
			"bufferView":2,
			"componentType":5123,
			"count":22386,
			"type":"SCALAR"
		},
		{
			"bufferView":3,
			"componentType":5126,
			"count":3419,
			"max":[
				0.0368371345102787,
				-0.007420215755701065,
				0.037237249314785004
			],
			"min":[
				-0.038767363876104355,
				-0.049120377749204636,
				-0.038377560675144196
			],
			"type":"VEC3"
		},
		{
			"bufferView":4,
			"componentType":5126,
			"count":3419,
			"type":"VEC3"
		},
		{
			"bufferView":5,
			"componentType":5123,
			"count":9864,
			"type":"SCALAR"
		},
		{
			"bufferView":6,
			"componentType":5126,
			"count":2050,
			"max":[
				0.03634742274880409,
				0.046359624713659286,
				0.03652986139059067
			],
			"min":[
				-0.03825261816382408,
				-0.05112037435173988,
				-0.03766147047281265
			],
			"type":"VEC3"
		},
		{
			"bufferView":7,
			"componentType":5126,
			"count":2050,
			"type":"VEC3"
		},
		{
			"bufferView":8,
			"componentType":5123,
			"count":8076,
			"type":"SCALAR"
		},
		{
			"bufferView":9,
			"componentType":5126,
			"count":159,
			"max":[
				0.03654739633202553,
				0.046359624713659286,
				0.03672870248556137
			],
			"min":[
				-0.03845259174704552,
				0.04575962945818901,
				-0.037860311567783356
			],
			"type":"VEC3"
		},
		{
			"bufferView":10,
			"componentType":5126,
			"count":159,
			"type":"VEC3"
		},
		{
			"bufferView":11,
			"componentType":5123,
			"count":360,
			"type":"SCALAR"
		},
		{
			"bufferView":12,
			"componentType":5126,
			"count":852,
			"max":[
				0.03654739633202553,
				0.04575962945818901,
				0.03676780313253403
			],
			"min":[
				-0.05940988287329674,
				-0.038429852575063705,
				-0.05596677213907242
			],
			"type":"VEC3"
		},
		{
			"bufferView":13,
			"componentType":5126,
			"count":852,
			"type":"VEC3"
		},
		{
			"bufferView":14,
			"componentType":5123,
			"count":2961,
			"type":"SCALAR"
		},
		{
			"bufferView":15,
			"componentType":5126,
			"count":307,
			"max":[
				-0.027821745723485947,
				0.0375516377389431,
				0.005495393183082342
			],
			"min":[
				-0.06573262065649033,
				-0.03743238374590874,
				-0.05936817079782486
			],
			"type":"VEC3"
		},
		{
			"bufferView":16,
			"componentType":5126,
			"count":307,
			"type":"VEC3"
		},
		{
			"bufferView":17,
			"componentType":5123,
			"count":624,
			"type":"SCALAR"
		},
		{
			"bufferView":18,
			"componentType":5126,
			"count":64,
			"max":[
				-0.022106435149908066,
				0.03696316108107567,
				0.008644664660096169
			],
			"min":[
				-0.06505896896123886,
				-0.0368439145386219,
				-0.059001244604587555
			],
			"type":"VEC3"
		},
		{
			"bufferView":19,
			"componentType":5126,
			"count":64,
			"type":"VEC3"
		},
		{
			"bufferView":20,
			"componentType":5123,
			"count":180,
			"type":"SCALAR"
		}
	],
	"bufferViews":[
		{
			"buffer":0,
			"byteLength":75552,
			"byteOffset":0,
			"target":34962
		},
		{
			"buffer":0,
			"byteLength":75552,
			"byteOffset":75552,
			"target":34962
		},
		{
			"buffer":0,
			"byteLength":44772,
			"byteOffset":151104,
			"target":34963
		},
		{
			"buffer":0,
			"byteLength":41028,
			"byteOffset":195876,
			"target":34962
		},
		{
			"buffer":0,
			"byteLength":41028,
			"byteOffset":236904,
			"target":34962
		},
		{
			"buffer":0,
			"byteLength":19728,
			"byteOffset":277932,
			"target":34963
		},
		{
			"buffer":0,
			"byteLength":24600,
			"byteOffset":297660,
			"target":34962
		},
		{
			"buffer":0,
			"byteLength":24600,
			"byteOffset":322260,
			"target":34962
		},
		{
			"buffer":0,
			"byteLength":16152,
			"byteOffset":346860,
			"target":34963
		},
		{
			"buffer":0,
			"byteLength":1908,
			"byteOffset":363012,
			"target":34962
		},
		{
			"buffer":0,
			"byteLength":1908,
			"byteOffset":364920,
			"target":34962
		},
		{
			"buffer":0,
			"byteLength":720,
			"byteOffset":366828,
			"target":34963
		},
		{
			"buffer":0,
			"byteLength":10224,
			"byteOffset":367548,
			"target":34962
		},
		{
			"buffer":0,
			"byteLength":10224,
			"byteOffset":377772,
			"target":34962
		},
		{
			"buffer":0,
			"byteLength":5922,
			"byteOffset":387996,
			"target":34963
		},
		{
			"buffer":0,
			"byteLength":3684,
			"byteOffset":393920,
			"target":34962
		},
		{
			"buffer":0,
			"byteLength":3684,
			"byteOffset":397604,
			"target":34962
		},
		{
			"buffer":0,
			"byteLength":1248,
			"byteOffset":401288,
			"target":34963
		},
		{
			"buffer":0,
			"byteLength":768,
			"byteOffset":402536,
			"target":34962
		},
		{
			"buffer":0,
			"byteLength":768,
			"byteOffset":403304,
			"target":34962
		},
		{
			"buffer":0,
			"byteLength":360,
			"byteOffset":404072,
			"target":34963
		}
	],
	"buffers":[
		{
			"byteLength":404432,
			"uri":"UR5e_j5.bin"
		}
	]
}
