{
	"asset":{
		"generator":"Khronos glTF Blender I/O v4.1.63",
		"version":"2.0"
	},
	"scene":0,
	"scenes":[
		{
			"name":"Scene",
			"nodes":[
				0
			]
		}
	],
	"nodes":[
		{
			"mesh":0,
			"name":"Link1_UR5_STEP",
			"rotation":[
				0.7071068286895752,
				0,
				0,
				0.7071068286895752
			]
		}
	],
	"materials":[
		{
			"doubleSided":true,
			"name":"mat_0",
			"pbrMetallicRoughness":{
				"baseColorFactor":[
					1,
					1,
					0.2158605307340622,
					1
				]
			}
		},
		{
			"doubleSided":true,
			"name":"mat_1",
			"pbrMetallicRoughness":{
				"baseColorFactor":[
					0.19806931912899017,
					0.5906188488006592,
					1,
					1
				]
			}
		},
		{
			"doubleSided":true,
			"name":"mat_2",
			"pbrMetallicRoughness":{
				"baseColorFactor":[
					0.5271151661872864,
					0.5271151661872864,
					0.5271151661872864,
					1
				]
			}
		},
		{
			"doubleSided":true,
			"name":"mat_3",
			"pbrMetallicRoughness":{
				"baseColorFactor":[
					0.12213877588510513,
					0.12213877588510513,
					0.12213877588510513,
					1
				]
			}
		},
		{
			"doubleSided":true,
			"name":"mat_4",
			"pbrMetallicRoughness":{
				"baseColorFactor":[
					0.3813260495662689,
					0.3419143855571747,
					0.3049873411655426,
					1
				]
			}
		},
		{
			"doubleSided":true,
			"name":"mat_5",
			"pbrMetallicRoughness":{
				"baseColorFactor":[
					0.05126945301890373,
					0.05126945301890373,
					0.05126945301890373,
					1
				]
			}
		},
		{
			"doubleSided":true,
			"name":"mat_6",
			"pbrMetallicRoughness":{
				"baseColorFactor":[
					0.5906188488006592,
					0.6375969052314758,
					0.8549926280975342,
					1
				]
			}
		},
		{
			"doubleSided":true,
			"name":"mat_7",
			"pbrMetallicRoughness":{
				"baseColorFactor":[
					1,
					1,
					0,
					1
				]
			}
		}
	],
	"meshes":[
		{
			"name":"Link1_UR5_STEP",
			"primitives":[
				{
					"attributes":{
						"POSITION":0,
						"NORMAL":1
					},
					"indices":2,
					"material":0
				},
				{
					"attributes":{
						"POSITION":3,
						"NORMAL":4
					},
					"indices":5,
					"material":1
				},
				{
					"attributes":{
						"POSITION":6,
						"NORMAL":7
					},
					"indices":8,
					"material":2
				},
				{
					"attributes":{
						"POSITION":9,
						"NORMAL":10
					},
					"indices":11,
					"material":3
				},
				{
					"attributes":{
						"POSITION":12,
						"NORMAL":13
					},
					"indices":14,
					"material":4
				},
				{
					"attributes":{
						"POSITION":15,
						"NORMAL":16
					},
					"indices":17,
					"material":5
				},
				{
					"attributes":{
						"POSITION":18,
						"NORMAL":19
					},
					"indices":20,
					"material":6
				},
				{
					"attributes":{
						"POSITION":21,
						"NORMAL":22
					},
					"indices":23,
					"material":7
				}
			]
		}
	],
	"accessors":[
		{
			"bufferView":0,
			"componentType":5126,
			"count":4777,
			"max":[
				0.058939848095178604,
				0.05924639478325844,
				-0.17147321999073029
			],
			"min":[
				-0.058882977813482285,
				-0.0587427094578743,
				-0.22496658563613892
			],
			"type":"VEC3"
		},
		{
			"bufferView":1,
			"componentType":5126,
			"count":4777,
			"type":"VEC3"
		},
		{
			"bufferView":2,
			"componentType":5123,
			"count":13614,
			"type":"SCALAR"
		},
		{
			"bufferView":3,
			"componentType":5126,
			"count":5504,
			"max":[
				0.060060832649469376,
				0.060097355395555496,
				-0.17127199470996857
			],
			"min":[
				-0.06009308993816376,
				-0.060100000351667404,
				-0.23454171419143677
			],
			"type":"VEC3"
		},
		{
			"bufferView":4,
			"componentType":5126,
			"count":5504,
			"type":"VEC3"
		},
		{
			"bufferView":5,
			"componentType":5123,
			"count":17811,
			"type":"SCALAR"
		},
		{
			"bufferView":6,
			"componentType":5126,
			"count":1272,
			"max":[
				0.05800009146332741,
				0.06019999831914902,
				-0.09910000115633011
			],
			"min":[
				-0.05800009146332741,
				-0.057999998331069946,
				-0.22353555262088776
			],
			"type":"VEC3"
		},
		{
			"bufferView":7,
			"componentType":5126,
			"count":1272,
			"type":"VEC3"
		},
		{
			"bufferView":8,
			"componentType":5123,
			"count":4440,
			"type":"SCALAR"
		},
		{
			"bufferView":9,
			"componentType":5126,
			"count":1672,
			"max":[
				0.05782727152109146,
				0.07360000163316727,
				-0.10450120270252228
			],
			"min":[
				-0.05782727152109146,
				0.06019999831914902,
				-0.22049880027770996
			],
			"type":"VEC3"
		},
		{
			"bufferView":10,
			"componentType":5126,
			"count":1672,
			"type":"VEC3"
		},
		{
			"bufferView":11,
			"componentType":5123,
			"count":7368,
			"type":"SCALAR"
		},
		{
			"bufferView":12,
			"componentType":5126,
			"count":3192,
			"max":[
				0.03885892033576965,
				0.038862444460392,
				-0.21119190752506256
			],
			"min":[
				-0.038862444460392,
				-0.038861919194459915,
				-0.22527019679546356
			],
			"type":"VEC3"
		},
		{
			"bufferView":13,
			"componentType":5126,
			"count":3192,
			"type":"VEC3"
		},
		{
			"bufferView":14,
			"componentType":5123,
			"count":10488,
			"type":"SCALAR"
		},
		{
			"bufferView":15,
			"componentType":5126,
			"count":265,
			"max":[
				0.05799301713705063,
				0.07440000027418137,
				-0.10452964156866074
			],
			"min":[
				-0.05799301713705063,
				0.07360000163316727,
				-0.2204703539609909
			],
			"type":"VEC3"
		},
		{
			"bufferView":16,
			"componentType":5126,
			"count":265,
			"type":"VEC3"
		},
		{
			"bufferView":17,
			"componentType":5123,
			"count":642,
			"type":"SCALAR"
		},
		{
			"bufferView":18,
			"componentType":5126,
			"count":222,
			"max":[
				0.05556463822722435,
				0.05647384747862816,
				-0.1729852259159088
			],
			"min":[
				-0.05567415803670883,
				-0.05673357471823692,
				-0.22092203795909882
			],
			"type":"VEC3"
		},
		{
			"bufferView":19,
			"componentType":5126,
			"count":222,
			"type":"VEC3"
		},
		{
			"bufferView":20,
			"componentType":5123,
			"count":441,
			"type":"SCALAR"
		},
		{
			"bufferView":21,
			"componentType":5126,
			"count":264,
			"max":[
				0.05800009146332741,
				0.06019999831914902,
				-0.09910000115633011
			],
			"min":[
				-0.05800009146332741,
				-0.057999998331069946,
				-0.22353555262088776
			],
			"type":"VEC3"
		},
		{
			"bufferView":22,
			"componentType":5126,
			"count":264,
			"type":"VEC3"
		},
		{
			"bufferView":23,
			"componentType":5123,
			"count":588,
			"type":"SCALAR"
		}
	],
	"bufferViews":[
		{
			"buffer":0,
			"byteLength":57324,
			"byteOffset":0,
			"target":34962
		},
		{
			"buffer":0,
			"byteLength":57324,
			"byteOffset":57324,
			"target":34962
		},
		{
			"buffer":0,
			"byteLength":27228,
			"byteOffset":114648,
			"target":34963
		},
		{
			"buffer":0,
			"byteLength":66048,
			"byteOffset":141876,
			"target":34962
		},
		{
			"buffer":0,
			"byteLength":66048,
			"byteOffset":207924,
			"target":34962
		},
		{
			"buffer":0,
			"byteLength":35622,
			"byteOffset":273972,
			"target":34963
		},
		{
			"buffer":0,
			"byteLength":15264,
			"byteOffset":309596,
			"target":34962
		},
		{
			"buffer":0,
			"byteLength":15264,
			"byteOffset":324860,
			"target":34962
		},
		{
			"buffer":0,
			"byteLength":8880,
			"byteOffset":340124,
			"target":34963
		},
		{
			"buffer":0,
			"byteLength":20064,
			"byteOffset":349004,
			"target":34962
		},
		{
			"buffer":0,
			"byteLength":20064,
			"byteOffset":369068,
			"target":34962
		},
		{
			"buffer":0,
			"byteLength":14736,
			"byteOffset":389132,
			"target":34963
		},
		{
			"buffer":0,
			"byteLength":38304,
			"byteOffset":403868,
			"target":34962
		},
		{
			"buffer":0,
			"byteLength":38304,
			"byteOffset":442172,
			"target":34962
		},
		{
			"buffer":0,
			"byteLength":20976,
			"byteOffset":480476,
			"target":34963
		},
		{
			"buffer":0,
			"byteLength":3180,
			"byteOffset":501452,
			"target":34962
		},
		{
			"buffer":0,
			"byteLength":3180,
			"byteOffset":504632,
			"target":34962
		},
		{
			"buffer":0,
			"byteLength":1284,
			"byteOffset":507812,
			"target":34963
		},
		{
			"buffer":0,
			"byteLength":2664,
			"byteOffset":509096,
			"target":34962
		},
		{
			"buffer":0,
			"byteLength":2664,
			"byteOffset":511760,
			"target":34962
		},
		{
			"buffer":0,
			"byteLength":882,
			"byteOffset":514424,
			"target":34963
		},
		{
			"buffer":0,
			"byteLength":3168,
			"byteOffset":515308,
			"target":34962
		},
		{
			"buffer":0,
			"byteLength":3168,
			"byteOffset":518476,
			"target":34962
		},
		{
			"buffer":0,
			"byteLength":1176,
			"byteOffset":521644,
			"target":34963
		}
	],
	"buffers":[
		{
			"byteLength":522820,
			"uri":"UR5e_j1.bin"
		}
	]
}
