{
	"asset":{
		"generator":"Khronos glTF Blender I/O v4.1.63",
		"version":"2.0"
	},
	"scene":0,
	"scenes":[
		{
			"name":"Scene",
			"nodes":[
				0
			]
		}
	],
	"nodes":[
		{
			"mesh":0,
			"name":"Base_UR5_STEP015",
			"rotation":[
				0.7071068286895752,
				0,
				0,
				0.7071068286895752
			]
		}
	],
	"materials":[
		{
			"doubleSided":true,
			"name":"mat_0",
			"pbrMetallicRoughness":{
				"baseColorFactor":[
					0.12213877588510513,
					0.12213877588510513,
					0.12213877588510513,
					1
				]
			}
		},
		{
			"doubleSided":true,
			"name":"mat_1",
			"pbrMetallicRoughness":{
				"baseColorFactor":[
					0.05126945301890373,
					0.05126945301890373,
					0.05126945301890373,
					1
				]
			}
		},
		{
			"doubleSided":true,
			"name":"mat_2",
			"pbrMetallicRoughness":{
				"baseColorFactor":[
					0.5271151661872864,
					0.5271151661872864,
					0.5271151661872864,
					1
				]
			}
		},
		{
			"doubleSided":true,
			"name":"mat_3",
			"pbrMetallicRoughness":{
				"baseColorFactor":[
					0.01032982300966978,
					0.01032982300966978,
					0.01032982300966978,
					1
				]
			}
		},
		{
			"doubleSided":true,
			"name":"mat_4",
			"pbrMetallicRoughness":{
				"baseColorFactor":[
					0.35640010237693787,
					0.3049873411655426,
					0.22322797775268555,
					1
				]
			}
		},
		{
			"doubleSided":true,
			"name":"mat_5",
			"pbrMetallicRoughness":{
				"baseColorFactor":[
					0.44520121812820435,
					0.44520121812820435,
					0.44520121812820435,
					1
				]
			}
		},
		{
			"doubleSided":true,
			"name":"mat_6",
			"pbrMetallicRoughness":{
				"baseColorFactor":[
					0.7835378050804138,
					0.8307698965072632,
					0.8468732237815857,
					1
				]
			}
		},
		{
			"doubleSided":true,
			"name":"mat_7",
			"pbrMetallicRoughness":{
				"baseColorFactor":[
					0.5906188488006592,
					0.6375969052314758,
					0.8549926280975342,
					1
				]
			}
		},
		{
			"doubleSided":true,
			"name":"mat_8",
			"pbrMetallicRoughness":{
				"baseColorFactor":[
					0,
					0.3662526309490204,
					0,
					1
				]
			}
		},
		{
			"doubleSided":true,
			"name":"mat_9",
			"pbrMetallicRoughness":{
				"baseColorFactor":[
					1,
					0,
					0,
					1
				]
			}
		},
		{
			"doubleSided":true,
			"name":"mat_10",
			"pbrMetallicRoughness":{
				"baseColorFactor":[
					0.8879231214523315,
					0.5394794940948486,
					0.027320893481373787,
					1
				]
			}
		}
	],
	"meshes":[
		{
			"name":"Base_UR5_STEP015",
			"primitives":[
				{
					"attributes":{
						"POSITION":0,
						"NORMAL":1
					},
					"indices":2,
					"material":0
				},
				{
					"attributes":{
						"POSITION":3,
						"NORMAL":4
					},
					"indices":5,
					"material":1
				},
				{
					"attributes":{
						"POSITION":6,
						"NORMAL":7
					},
					"indices":8,
					"material":2
				},
				{
					"attributes":{
						"POSITION":9,
						"NORMAL":10
					},
					"indices":11,
					"material":3
				},
				{
					"attributes":{
						"POSITION":12,
						"NORMAL":13
					},
					"indices":14,
					"material":4
				},
				{
					"attributes":{
						"POSITION":15,
						"NORMAL":16
					},
					"indices":17,
					"material":5
				},
				{
					"attributes":{
						"POSITION":18,
						"NORMAL":19
					},
					"indices":20,
					"material":6
				},
				{
					"attributes":{
						"POSITION":21,
						"NORMAL":22
					},
					"indices":23,
					"material":7
				},
				{
					"attributes":{
						"POSITION":24,
						"NORMAL":25
					},
					"indices":26,
					"material":8
				},
				{
					"attributes":{
						"POSITION":27,
						"NORMAL":28
					},
					"indices":29,
					"material":9
				},
				{
					"attributes":{
						"POSITION":30,
						"NORMAL":31
					},
					"indices":32,
					"material":10
				}
			]
		}
	],
	"accessors":[
		{
			"bufferView":0,
			"componentType":5126,
			"count":1946,
			"max":[
				0.05784459784626961,
				0.057971224188804626,
				-0.08487992733716965
			],
			"min":[
				-0.05784459784626961,
				-0.057971224188804626,
				-0.09830000251531601
			],
			"type":"VEC3"
		},
		{
			"bufferView":1,
			"componentType":5126,
			"count":1946,
			"type":"VEC3"
		},
		{
			"bufferView":2,
			"componentType":5123,
			"count":8202,
			"type":"SCALAR"
		},
		{
			"bufferView":3,
			"componentType":5126,
			"count":727,
			"max":[
				0.05796006694436073,
				0.05799272656440735,
				-0.04625000059604645
			],
			"min":[
				-0.05796006694436073,
				-0.05799272656440735,
				-0.09910000115633011
			],
			"type":"VEC3"
		},
		{
			"bufferView":4,
			"componentType":5126,
			"count":727,
			"type":"VEC3"
		},
		{
			"bufferView":5,
			"componentType":5123,
			"count":2544,
			"type":"SCALAR"
		},
		{
			"bufferView":6,
			"componentType":5126,
			"count":2650,
			"max":[
				0.0131222540512681,
				0.04075000062584877,
				-0.04984999820590019
			],
			"min":[
				-0.0131222540512681,
				0.017249999567866325,
				-0.05375000089406967
			],
			"type":"VEC3"
		},
		{
			"bufferView":7,
			"componentType":5126,
			"count":2650,
			"type":"VEC3"
		},
		{
			"bufferView":8,
			"componentType":5123,
			"count":10146,
			"type":"SCALAR"
		},
		{
			"bufferView":9,
			"componentType":5126,
			"count":376,
			"max":[
				0.006049999967217445,
				0.03200588747859001,
				-0.03824999928474426
			],
			"min":[
				-0.006049999967217445,
				0.019994111731648445,
				-0.05624999850988388
			],
			"type":"VEC3"
		},
		{
			"bufferView":10,
			"componentType":5126,
			"count":376,
			"type":"VEC3"
		},
		{
			"bufferView":11,
			"componentType":5123,
			"count":1077,
			"type":"SCALAR"
		},
		{
			"bufferView":12,
			"componentType":5126,
			"count":1084,
			"max":[
				0.014490068890154362,
				0.04050000011920929,
				-0.04024999961256981
			],
			"min":[
				-0.014490068890154362,
				0.011500000022351742,
				-0.05674999952316284
			],
			"type":"VEC3"
		},
		{
			"bufferView":13,
			"componentType":5126,
			"count":1084,
			"type":"VEC3"
		},
		{
			"bufferView":14,
			"componentType":5123,
			"count":3546,
			"type":"SCALAR"
		},
		{
			"bufferView":15,
			"componentType":5126,
			"count":10082,
			"max":[
				0.07536270469427109,
				0.0754999965429306,
				0
			],
			"min":[
				-0.07536270469427109,
				-0.07549933344125748,
				-0.08489999920129776
			],
			"type":"VEC3"
		},
		{
			"bufferView":16,
			"componentType":5126,
			"count":10082,
			"type":"VEC3"
		},
		{
			"bufferView":17,
			"componentType":5123,
			"count":30324,
			"type":"SCALAR"
		},
		{
			"bufferView":18,
			"componentType":5126,
			"count":224,
			"max":[
				0.024840885773301125,
				0.014449999667704105,
				-0.05375000089406967
			],
			"min":[
				-0.02074088528752327,
				-0.009850000031292439,
				-0.05674999952316284
			],
			"type":"VEC3"
		},
		{
			"bufferView":19,
			"componentType":5126,
			"count":224,
			"type":"VEC3"
		},
		{
			"bufferView":20,
			"componentType":5123,
			"count":624,
			"type":"SCALAR"
		},
		{
			"bufferView":21,
			"componentType":5126,
			"count":481,
			"max":[
				0.05685000121593475,
				0.05680302903056145,
				-0.05674999952316284
			],
			"min":[
				-0.05685000121593475,
				-0.05680302903056145,
				-0.09830000251531601
			],
			"type":"VEC3"
		},
		{
			"bufferView":22,
			"componentType":5126,
			"count":481,
			"type":"VEC3"
		},
		{
			"bufferView":23,
			"componentType":5123,
			"count":1230,
			"type":"SCALAR"
		},
		{
			"bufferView":24,
			"componentType":5126,
			"count":131,
			"max":[
				0.0017298507736995816,
				0.02828189544379711,
				-0.04625000059604645
			],
			"min":[
				-0.004040990490466356,
				0.02197687327861786,
				-0.05674999952316284
			],
			"type":"VEC3"
		},
		{
			"bufferView":25,
			"componentType":5126,
			"count":131,
			"type":"VEC3"
		},
		{
			"bufferView":26,
			"componentType":5123,
			"count":528,
			"type":"SCALAR"
		},
		{
			"bufferView":27,
			"componentType":5126,
			"count":233,
			"max":[
				0.003699185326695442,
				0.030906883999705315,
				-0.04625000059604645
			],
			"min":[
				-0.0016909128753468394,
				0.027301888912916183,
				-0.05674999952316284
			],
			"type":"VEC3"
		},
		{
			"bufferView":28,
			"componentType":5126,
			"count":233,
			"type":"VEC3"
		},
		{
			"bufferView":29,
			"componentType":5123,
			"count":969,
			"type":"SCALAR"
		},
		{
			"bufferView":30,
			"componentType":5126,
			"count":56,
			"max":[
				0.00784240011125803,
				0.033900000154972076,
				-0.05584407225251198
			],
			"min":[
				-0.00784240011125803,
				0.01810000091791153,
				-0.05670096352696419
			],
			"type":"VEC3"
		},
		{
			"bufferView":31,
			"componentType":5126,
			"count":56,
			"type":"VEC3"
		},
		{
			"bufferView":32,
			"componentType":5123,
			"count":156,
			"type":"SCALAR"
		}
	],
	"bufferViews":[
		{
			"buffer":0,
			"byteLength":23352,
			"byteOffset":0,
			"target":34962
		},
		{
			"buffer":0,
			"byteLength":23352,
			"byteOffset":23352,
			"target":34962
		},
		{
			"buffer":0,
			"byteLength":16404,
			"byteOffset":46704,
			"target":34963
		},
		{
			"buffer":0,
			"byteLength":8724,
			"byteOffset":63108,
			"target":34962
		},
		{
			"buffer":0,
			"byteLength":8724,
			"byteOffset":71832,
			"target":34962
		},
		{
			"buffer":0,
			"byteLength":5088,
			"byteOffset":80556,
			"target":34963
		},
		{
			"buffer":0,
			"byteLength":31800,
			"byteOffset":85644,
			"target":34962
		},
		{
			"buffer":0,
			"byteLength":31800,
			"byteOffset":117444,
			"target":34962
		},
		{
			"buffer":0,
			"byteLength":20292,
			"byteOffset":149244,
			"target":34963
		},
		{
			"buffer":0,
			"byteLength":4512,
			"byteOffset":169536,
			"target":34962
		},
		{
			"buffer":0,
			"byteLength":4512,
			"byteOffset":174048,
			"target":34962
		},
		{
			"buffer":0,
			"byteLength":2154,
			"byteOffset":178560,
			"target":34963
		},
		{
			"buffer":0,
			"byteLength":13008,
			"byteOffset":180716,
			"target":34962
		},
		{
			"buffer":0,
			"byteLength":13008,
			"byteOffset":193724,
			"target":34962
		},
		{
			"buffer":0,
			"byteLength":7092,
			"byteOffset":206732,
			"target":34963
		},
		{
			"buffer":0,
			"byteLength":120984,
			"byteOffset":213824,
			"target":34962
		},
		{
			"buffer":0,
			"byteLength":120984,
			"byteOffset":334808,
			"target":34962
		},
		{
			"buffer":0,
			"byteLength":60648,
			"byteOffset":455792,
			"target":34963
		},
		{
			"buffer":0,
			"byteLength":2688,
			"byteOffset":516440,
			"target":34962
		},
		{
			"buffer":0,
			"byteLength":2688,
			"byteOffset":519128,
			"target":34962
		},
		{
			"buffer":0,
			"byteLength":1248,
			"byteOffset":521816,
			"target":34963
		},
		{
			"buffer":0,
			"byteLength":5772,
			"byteOffset":523064,
			"target":34962
		},
		{
			"buffer":0,
			"byteLength":5772,
			"byteOffset":528836,
			"target":34962
		},
		{
			"buffer":0,
			"byteLength":2460,
			"byteOffset":534608,
			"target":34963
		},
		{
			"buffer":0,
			"byteLength":1572,
			"byteOffset":537068,
			"target":34962
		},
		{
			"buffer":0,
			"byteLength":1572,
			"byteOffset":538640,
			"target":34962
		},
		{
			"buffer":0,
			"byteLength":1056,
			"byteOffset":540212,
			"target":34963
		},
		{
			"buffer":0,
			"byteLength":2796,
			"byteOffset":541268,
			"target":34962
		},
		{
			"buffer":0,
			"byteLength":2796,
			"byteOffset":544064,
			"target":34962
		},
		{
			"buffer":0,
			"byteLength":1938,
			"byteOffset":546860,
			"target":34963
		},
		{
			"buffer":0,
			"byteLength":672,
			"byteOffset":548800,
			"target":34962
		},
		{
			"buffer":0,
			"byteLength":672,
			"byteOffset":549472,
			"target":34962
		},
		{
			"buffer":0,
			"byteLength":312,
			"byteOffset":550144,
			"target":34963
		}
	],
	"buffers":[
		{
			"byteLength":550456,
			"uri":"UR5e_Base.bin"
		}
	]
}
