{
	"asset":{
		"generator":"Khronos glTF Blender I/O v4.1.63",
		"version":"2.0"
	},
	"scene":0,
	"scenes":[
		{
			"name":"Scene",
			"nodes":[
				0
			]
		}
	],
	"nodes":[
		{
			"mesh":0,
			"name":"Link4_UR5_STEP^1000515",
			"rotation":[
				0.3535534739494324,
				0.6123724579811096,
				0.6123724579811096,
				0.35355344414711
			],
			"translation":[
				0,
				0,
				0.13420000672340393
			]
		}
	],
	"materials":[
		{
			"doubleSided":true,
			"name":"mat_0",
			"pbrMetallicRoughness":{
				"baseColorFactor":[
					0.19806931912899017,
					0.5906188488006592,
					1,
					1
				]
			}
		},
		{
			"doubleSided":true,
			"name":"mat_1",
			"pbrMetallicRoughness":{
				"baseColorFactor":[
					1,
					1,
					0.2158605307340622,
					1
				]
			}
		},
		{
			"doubleSided":true,
			"name":"mat_2",
			"pbrMetallicRoughness":{
				"baseColorFactor":[
					0.12213877588510513,
					0.12213877588510513,
					0.12213877588510513,
					1
				]
			}
		},
		{
			"doubleSided":true,
			"name":"mat_3",
			"pbrMetallicRoughness":{
				"baseColorFactor":[
					0.05126945301890373,
					0.05126945301890373,
					0.05126945301890373,
					1
				]
			}
		},
		{
			"doubleSided":true,
			"name":"mat_4",
			"pbrMetallicRoughness":{
				"baseColorFactor":[
					0.7835378050804138,
					0.7835378050804138,
					0.7835378050804138,
					1
				]
			}
		},
		{
			"doubleSided":true,
			"name":"mat_5",
			"pbrMetallicRoughness":{
				"baseColorFactor":[
					0.5271151661872864,
					0.5271151661872864,
					0.5271151661872864,
					1
				]
			}
		},
		{
			"doubleSided":true,
			"name":"mat_6",
			"pbrMetallicRoughness":{
				"baseColorFactor":[
					0.5906188488006592,
					0.6375969052314758,
					0.8549926280975342,
					1
				]
			}
		}
	],
	"meshes":[
		{
			"name":"Link4_UR5_STEP^1000515",
			"primitives":[
				{
					"attributes":{
						"POSITION":0,
						"NORMAL":1
					},
					"indices":2,
					"material":0
				},
				{
					"attributes":{
						"POSITION":3,
						"NORMAL":4
					},
					"indices":5,
					"material":1
				},
				{
					"attributes":{
						"POSITION":6,
						"NORMAL":7
					},
					"indices":8,
					"material":2
				},
				{
					"attributes":{
						"POSITION":9,
						"NORMAL":10
					},
					"indices":11,
					"material":3
				},
				{
					"attributes":{
						"POSITION":12,
						"NORMAL":13
					},
					"indices":14,
					"material":4
				},
				{
					"attributes":{
						"POSITION":15,
						"NORMAL":16
					},
					"indices":17,
					"material":5
				},
				{
					"attributes":{
						"POSITION":18,
						"NORMAL":19
					},
					"indices":20,
					"material":6
				}
			]
		}
	],
	"accessors":[
		{
			"bufferView":0,
			"componentType":5126,
			"count":7376,
			"max":[
				0.004571676254272461,
				0.037644341588020325,
				0.02390420436859131
			],
			"min":[
				-0.06242811679840088,
				-0.040880024433135986,
				-0.055130600929260254
			],
			"type":"VEC3"
		},
		{
			"bufferView":1,
			"componentType":5126,
			"count":7376,
			"type":"VEC3"
		},
		{
			"bufferView":2,
			"componentType":5123,
			"count":23502,
			"type":"SCALAR"
		},
		{
			"bufferView":3,
			"componentType":5126,
			"count":4831,
			"max":[
				0.003604382276535034,
				0.036198437213897705,
				0.02258586883544922
			],
			"min":[
				-0.04444661736488342,
				-0.039588481187820435,
				-0.0457022488117218
			],
			"type":"VEC3"
		},
		{
			"bufferView":4,
			"componentType":5126,
			"count":4831,
			"type":"VEC3"
		},
		{
			"bufferView":5,
			"componentType":5123,
			"count":13686,
			"type":"SCALAR"
		},
		{
			"bufferView":6,
			"componentType":5126,
			"count":933,
			"max":[
				0.03778272867202759,
				-0.025240592658519745,
				0.037904977798461914
			],
			"min":[
				-0.03721332550048828,
				-0.08129994571208954,
				-0.03709104657173157
			],
			"type":"VEC3"
		},
		{
			"bufferView":7,
			"componentType":5126,
			"count":933,
			"type":"VEC3"
		},
		{
			"bufferView":8,
			"componentType":5123,
			"count":4263,
			"type":"SCALAR"
		},
		{
			"bufferView":9,
			"componentType":5126,
			"count":204,
			"max":[
				0.037657707929611206,
				-0.08129994571208954,
				0.03777995705604553
			],
			"min":[
				-0.0370883047580719,
				-0.08209994435310364,
				-0.03696605563163757
			],
			"type":"VEC3"
		},
		{
			"bufferView":10,
			"componentType":5126,
			"count":204,
			"type":"VEC3"
		},
		{
			"bufferView":11,
			"componentType":5123,
			"count":582,
			"type":"SCALAR"
		},
		{
			"bufferView":12,
			"componentType":5126,
			"count":2571,
			"max":[
				0.05894869565963745,
				0.035434067249298096,
				0.055715978145599365
			],
			"min":[
				-0.05846792459487915,
				-0.038833968341350555,
				-0.05043530464172363
			],
			"type":"VEC3"
		},
		{
			"bufferView":13,
			"componentType":5126,
			"count":2571,
			"type":"VEC3"
		},
		{
			"bufferView":14,
			"componentType":5123,
			"count":8433,
			"type":"SCALAR"
		},
		{
			"bufferView":15,
			"componentType":5126,
			"count":1521,
			"max":[
				0.05861207842826843,
				0.03580005466938019,
				0.055732905864715576
			],
			"min":[
				-0.04288369417190552,
				-0.07454994320869446,
				-0.04473191499710083
			],
			"type":"VEC3"
		},
		{
			"bufferView":16,
			"componentType":5126,
			"count":1521,
			"type":"VEC3"
		},
		{
			"bufferView":17,
			"componentType":5123,
			"count":4581,
			"type":"SCALAR"
		},
		{
			"bufferView":18,
			"componentType":5126,
			"count":136,
			"max":[
				0.05861207842826843,
				0.03580005466938019,
				0.055732905864715576
			],
			"min":[
				0.021112054586410522,
				-0.03919994831085205,
				-0.009218990802764893
			],
			"type":"VEC3"
		},
		{
			"bufferView":19,
			"componentType":5126,
			"count":136,
			"type":"VEC3"
		},
		{
			"bufferView":20,
			"componentType":5123,
			"count":168,
			"type":"SCALAR"
		}
	],
	"bufferViews":[
		{
			"buffer":0,
			"byteLength":88512,
			"byteOffset":0,
			"target":34962
		},
		{
			"buffer":0,
			"byteLength":88512,
			"byteOffset":88512,
			"target":34962
		},
		{
			"buffer":0,
			"byteLength":47004,
			"byteOffset":177024,
			"target":34963
		},
		{
			"buffer":0,
			"byteLength":57972,
			"byteOffset":224028,
			"target":34962
		},
		{
			"buffer":0,
			"byteLength":57972,
			"byteOffset":282000,
			"target":34962
		},
		{
			"buffer":0,
			"byteLength":27372,
			"byteOffset":339972,
			"target":34963
		},
		{
			"buffer":0,
			"byteLength":11196,
			"byteOffset":367344,
			"target":34962
		},
		{
			"buffer":0,
			"byteLength":11196,
			"byteOffset":378540,
			"target":34962
		},
		{
			"buffer":0,
			"byteLength":8526,
			"byteOffset":389736,
			"target":34963
		},
		{
			"buffer":0,
			"byteLength":2448,
			"byteOffset":398264,
			"target":34962
		},
		{
			"buffer":0,
			"byteLength":2448,
			"byteOffset":400712,
			"target":34962
		},
		{
			"buffer":0,
			"byteLength":1164,
			"byteOffset":403160,
			"target":34963
		},
		{
			"buffer":0,
			"byteLength":30852,
			"byteOffset":404324,
			"target":34962
		},
		{
			"buffer":0,
			"byteLength":30852,
			"byteOffset":435176,
			"target":34962
		},
		{
			"buffer":0,
			"byteLength":16866,
			"byteOffset":466028,
			"target":34963
		},
		{
			"buffer":0,
			"byteLength":18252,
			"byteOffset":482896,
			"target":34962
		},
		{
			"buffer":0,
			"byteLength":18252,
			"byteOffset":501148,
			"target":34962
		},
		{
			"buffer":0,
			"byteLength":9162,
			"byteOffset":519400,
			"target":34963
		},
		{
			"buffer":0,
			"byteLength":1632,
			"byteOffset":528564,
			"target":34962
		},
		{
			"buffer":0,
			"byteLength":1632,
			"byteOffset":530196,
			"target":34962
		},
		{
			"buffer":0,
			"byteLength":336,
			"byteOffset":531828,
			"target":34963
		}
	],
	"buffers":[
		{
			"byteLength":532164,
			"uri":"UR5e_j4.bin"
		}
	]
}
