{
	"asset":{
		"generator":"Khronos glTF Blender I/O v4.1.63",
		"version":"2.0"
	},
	"scene":0,
	"scenes":[
		{
			"name":"Scene",
			"nodes":[
				0
			]
		}
	],
	"nodes":[
		{
			"mesh":0,
			"name":"Link3_UR5_STEP",
			"rotation":[
				0.7071068286895752,
				-0.7071068286895752,
				0,
				3.090859834742332e-08
			],
			"translation":[
				0,
				0.3479999899864197,
				0.006000000052154064
			]
		}
	],
	"materials":[
		{
			"doubleSided":true,
			"name":"mat_0",
			"pbrMetallicRoughness":{
				"baseColorFactor":[
					0.12213877588510513,
					0.12213877588510513,
					0.12213877588510513,
					1
				]
			}
		},
		{
			"doubleSided":true,
			"name":"mat_1",
			"pbrMetallicRoughness":{
				"baseColorFactor":[
					0.19806931912899017,
					0.5906188488006592,
					1,
					1
				]
			}
		},
		{
			"doubleSided":true,
			"name":"mat_2",
			"pbrMetallicRoughness":{
				"baseColorFactor":[
					0.01032982300966978,
					0.01032982300966978,
					0.01032982300966978,
					1
				]
			}
		},
		{
			"doubleSided":true,
			"name":"mat_3",
			"pbrMetallicRoughness":{
				"baseColorFactor":[
					0.5271151661872864,
					0.5271151661872864,
					0.5271151661872864,
					1
				]
			}
		},
		{
			"doubleSided":true,
			"name":"mat_4",
			"pbrMetallicRoughness":{
				"baseColorFactor":[
					0.44520121812820435,
					0.44520121812820435,
					0.44520121812820435,
					1
				]
			}
		},
		{
			"doubleSided":true,
			"name":"mat_5",
			"pbrMetallicRoughness":{
				"baseColorFactor":[
					0.7835378050804138,
					0.7835378050804138,
					0.7835378050804138,
					1
				]
			}
		},
		{
			"doubleSided":true,
			"name":"mat_6",
			"pbrMetallicRoughness":{
				"baseColorFactor":[
					0.5906188488006592,
					0.6375969052314758,
					0.8549926280975342,
					1
				]
			}
		}
	],
	"meshes":[
		{
			"name":"Link3_UR5_STEP",
			"primitives":[
				{
					"attributes":{
						"POSITION":0,
						"NORMAL":1
					},
					"indices":2,
					"material":0
				},
				{
					"attributes":{
						"POSITION":3,
						"NORMAL":4
					},
					"indices":5,
					"material":1
				},
				{
					"attributes":{
						"POSITION":6,
						"NORMAL":7
					},
					"indices":8,
					"material":2
				},
				{
					"attributes":{
						"POSITION":9,
						"NORMAL":10
					},
					"indices":11,
					"material":3
				},
				{
					"attributes":{
						"POSITION":12,
						"NORMAL":13
					},
					"indices":14,
					"material":4
				},
				{
					"attributes":{
						"POSITION":15,
						"NORMAL":16
					},
					"indices":17,
					"material":5
				},
				{
					"attributes":{
						"POSITION":18,
						"NORMAL":19
					},
					"indices":20,
					"material":6
				}
			]
		}
	],
	"accessors":[
		{
			"bufferView":0,
			"componentType":5126,
			"count":3770,
			"max":[
				0.4059668183326721,
				0.05789374187588692,
				0.04800000041723251
			],
			"min":[
				0.0015999999595806003,
				-0.05789374187588692,
				-0.06700000166893005
			],
			"type":"VEC3"
		},
		{
			"bufferView":1,
			"componentType":5126,
			"count":3770,
			"type":"VEC3"
		},
		{
			"bufferView":2,
			"componentType":5123,
			"count":15327,
			"type":"SCALAR"
		},
		{
			"bufferView":3,
			"componentType":5126,
			"count":5797,
			"max":[
				-0.004917290527373552,
				0.0393499992787838,
				0.05604799836874008
			],
			"min":[
				-0.08356467634439468,
				-0.0393499992787838,
				0.006831374019384384
			],
			"type":"VEC3"
		},
		{
			"bufferView":4,
			"componentType":5126,
			"count":5797,
			"type":"VEC3"
		},
		{
			"bufferView":5,
			"componentType":5123,
			"count":19929,
			"type":"SCALAR"
		},
		{
			"bufferView":6,
			"componentType":5126,
			"count":435,
			"max":[
				0.4059999883174896,
				0.05792733281850815,
				-0.06700000166893005
			],
			"min":[
				0.28999999165534973,
				-0.05792733281850815,
				-0.06780000030994415
			],
			"type":"VEC3"
		},
		{
			"bufferView":7,
			"componentType":5126,
			"count":435,
			"type":"VEC3"
		},
		{
			"bufferView":8,
			"componentType":5123,
			"count":1056,
			"type":"SCALAR"
		},
		{
			"bufferView":9,
			"componentType":5126,
			"count":1645,
			"max":[
				0.4059999883174896,
				0.05800006166100502,
				0.04800000041723251
			],
			"min":[
				-0.08174879848957062,
				-0.05800006166100502,
				-0.053599998354911804
			],
			"type":"VEC3"
		},
		{
			"bufferView":10,
			"componentType":5126,
			"count":1645,
			"type":"VEC3"
		},
		{
			"bufferView":11,
			"componentType":5123,
			"count":5118,
			"type":"SCALAR"
		},
		{
			"bufferView":12,
			"componentType":5126,
			"count":907,
			"max":[
				0.2709999978542328,
				0.04800000041723251,
				0.04800000041723251
			],
			"min":[
				0.00839999970048666,
				-0.04800000041723251,
				-0.04800000041723251
			],
			"type":"VEC3"
		},
		{
			"bufferView":13,
			"componentType":5126,
			"count":907,
			"type":"VEC3"
		},
		{
			"bufferView":14,
			"componentType":5123,
			"count":2742,
			"type":"SCALAR"
		},
		{
			"bufferView":15,
			"componentType":5126,
			"count":2194,
			"max":[
				0.4050000011920929,
				0.05693120136857033,
				0.051197998225688934
			],
			"min":[
				-0.08154664933681488,
				-0.056955497711896896,
				-0.06700000166893005
			],
			"type":"VEC3"
		},
		{
			"bufferView":16,
			"componentType":5126,
			"count":2194,
			"type":"VEC3"
		},
		{
			"bufferView":17,
			"componentType":5123,
			"count":7968,
			"type":"SCALAR"
		},
		{
			"bufferView":18,
			"componentType":5126,
			"count":52,
			"max":[
				-0.007023417390882969,
				0.03750000149011612,
				-0.04569999873638153
			],
			"min":[
				-0.08147658407688141,
				-0.03750000149011612,
				-0.04569999873638153
			],
			"type":"VEC3"
		},
		{
			"bufferView":19,
			"componentType":5126,
			"count":52,
			"type":"VEC3"
		},
		{
			"bufferView":20,
			"componentType":5123,
			"count":156,
			"type":"SCALAR"
		}
	],
	"bufferViews":[
		{
			"buffer":0,
			"byteLength":45240,
			"byteOffset":0,
			"target":34962
		},
		{
			"buffer":0,
			"byteLength":45240,
			"byteOffset":45240,
			"target":34962
		},
		{
			"buffer":0,
			"byteLength":30654,
			"byteOffset":90480,
			"target":34963
		},
		{
			"buffer":0,
			"byteLength":69564,
			"byteOffset":121136,
			"target":34962
		},
		{
			"buffer":0,
			"byteLength":69564,
			"byteOffset":190700,
			"target":34962
		},
		{
			"buffer":0,
			"byteLength":39858,
			"byteOffset":260264,
			"target":34963
		},
		{
			"buffer":0,
			"byteLength":5220,
			"byteOffset":300124,
			"target":34962
		},
		{
			"buffer":0,
			"byteLength":5220,
			"byteOffset":305344,
			"target":34962
		},
		{
			"buffer":0,
			"byteLength":2112,
			"byteOffset":310564,
			"target":34963
		},
		{
			"buffer":0,
			"byteLength":19740,
			"byteOffset":312676,
			"target":34962
		},
		{
			"buffer":0,
			"byteLength":19740,
			"byteOffset":332416,
			"target":34962
		},
		{
			"buffer":0,
			"byteLength":10236,
			"byteOffset":352156,
			"target":34963
		},
		{
			"buffer":0,
			"byteLength":10884,
			"byteOffset":362392,
			"target":34962
		},
		{
			"buffer":0,
			"byteLength":10884,
			"byteOffset":373276,
			"target":34962
		},
		{
			"buffer":0,
			"byteLength":5484,
			"byteOffset":384160,
			"target":34963
		},
		{
			"buffer":0,
			"byteLength":26328,
			"byteOffset":389644,
			"target":34962
		},
		{
			"buffer":0,
			"byteLength":26328,
			"byteOffset":415972,
			"target":34962
		},
		{
			"buffer":0,
			"byteLength":15936,
			"byteOffset":442300,
			"target":34963
		},
		{
			"buffer":0,
			"byteLength":624,
			"byteOffset":458236,
			"target":34962
		},
		{
			"buffer":0,
			"byteLength":624,
			"byteOffset":458860,
			"target":34962
		},
		{
			"buffer":0,
			"byteLength":312,
			"byteOffset":459484,
			"target":34963
		}
	],
	"buffers":[
		{
			"byteLength":459796,
			"uri":"UR5e_j3.bin"
		}
	]
}
