{
	"asset":{
		"generator":"Khronos glTF Blender I/O v4.1.63",
		"version":"2.0"
	},
	"scene":0,
	"scenes":[
		{
			"name":"Scene",
			"nodes":[
				0
			]
		}
	],
	"nodes":[
		{
			"mesh":0,
			"name":"Link6_UR5_STEP004",
			"rotation":[
				-0.7071068286895752,
				0,
				0,
				0.7071068286895752
			]
		}
	],
	"materials":[
		{
			"doubleSided":true,
			"name":"mat_0",
			"pbrMetallicRoughness":{
				"baseColorFactor":[
					0.12213877588510513,
					0.12213877588510513,
					0.12213877588510513,
					1
				]
			}
		},
		{
			"doubleSided":true,
			"name":"mat_1",
			"pbrMetallicRoughness":{
				"baseColorFactor":[
					0.44520121812820435,
					0.44520121812820435,
					0.44520121812820435,
					1
				]
			}
		},
		{
			"doubleSided":true,
			"name":"mat_2",
			"pbrMetallicRoughness":{
				"baseColorFactor":[
					0.5906188488006592,
					0.6375969052314758,
					0.8549926280975342,
					1
				]
			}
		}
	],
	"meshes":[
		{
			"name":"Link6_UR5_STEP004",
			"primitives":[
				{
					"attributes":{
						"POSITION":0,
						"NORMAL":1
					},
					"indices":2,
					"material":0
				},
				{
					"attributes":{
						"POSITION":3,
						"NORMAL":4
					},
					"indices":5,
					"material":1
				},
				{
					"attributes":{
						"POSITION":6,
						"NORMAL":7
					},
					"indices":8,
					"material":2
				}
			]
		}
	],
	"accessors":[
		{
			"bufferView":0,
			"componentType":5126,
			"count":3027,
			"max":[
				0.03750000149011612,
				-0.04569999501109123,
				0.03749999403953552
			],
			"min":[
				-0.03750000149011612,
				-0.05324999615550041,
				-0.037500008940696716
			],
			"type":"VEC3"
		},
		{
			"bufferView":1,
			"componentType":5126,
			"count":3027,
			"type":"VEC3"
		},
		{
			"bufferView":2,
			"componentType":5123,
			"count":13530,
			"type":"SCALAR"
		},
		{
			"bufferView":3,
			"componentType":5126,
			"count":2573,
			"max":[
				0.03750000149011612,
				-0.05324999615550041,
				0.044099994003772736
			],
			"min":[
				-0.03750000149011612,
				-0.0989999920129776,
				-0.037500008940696716
			],
			"type":"VEC3"
		},
		{
			"bufferView":4,
			"componentType":5126,
			"count":2573,
			"type":"VEC3"
		},
		{
			"bufferView":5,
			"componentType":5123,
			"count":7731,
			"type":"SCALAR"
		},
		{
			"bufferView":6,
			"componentType":5126,
			"count":528,
			"max":[
				0.015200000256299973,
				-0.06225999817252159,
				0.03399999439716339
			],
			"min":[
				-0.01518984604626894,
				-0.08899999409914017,
				-0.03200000897049904
			],
			"type":"VEC3"
		},
		{
			"bufferView":7,
			"componentType":5126,
			"count":528,
			"type":"VEC3"
		},
		{
			"bufferView":8,
			"componentType":5123,
			"count":1173,
			"type":"SCALAR"
		}
	],
	"bufferViews":[
		{
			"buffer":0,
			"byteLength":36324,
			"byteOffset":0,
			"target":34962
		},
		{
			"buffer":0,
			"byteLength":36324,
			"byteOffset":36324,
			"target":34962
		},
		{
			"buffer":0,
			"byteLength":27060,
			"byteOffset":72648,
			"target":34963
		},
		{
			"buffer":0,
			"byteLength":30876,
			"byteOffset":99708,
			"target":34962
		},
		{
			"buffer":0,
			"byteLength":30876,
			"byteOffset":130584,
			"target":34962
		},
		{
			"buffer":0,
			"byteLength":15462,
			"byteOffset":161460,
			"target":34963
		},
		{
			"buffer":0,
			"byteLength":6336,
			"byteOffset":176924,
			"target":34962
		},
		{
			"buffer":0,
			"byteLength":6336,
			"byteOffset":183260,
			"target":34962
		},
		{
			"buffer":0,
			"byteLength":2346,
			"byteOffset":189596,
			"target":34963
		}
	],
	"buffers":[
		{
			"byteLength":191944,
			"uri":"UR5e_j6.bin"
		}
	]
}
