{
	"asset":{
		"generator":"Khronos glTF Blender I/O v4.1.63",
		"version":"2.0"
	},
	"scene":0,
	"scenes":[
		{
			"name":"Scene",
			"nodes":[
				0
			]
		}
	],
	"nodes":[
		{
			"mesh":0,
			"name":"Link2_UR5_STEP",
			"rotation":[
				0.70710688829422,
				0,
				0,
				0.7071066498756409
			],
			"translation":[
				0,
				-0.1599999964237213,
				0
			]
		}
	],
	"materials":[
		{
			"doubleSided":true,
			"name":"mat_0",
			"pbrMetallicRoughness":{
				"baseColorFactor":[
					0.19806931912899017,
					0.5906188488006592,
					1,
					1
				]
			}
		},
		{
			"doubleSided":true,
			"name":"mat_1",
			"pbrMetallicRoughness":{
				"baseColorFactor":[
					0.5271151661872864,
					0.5271151661872864,
					0.5271151661872864,
					1
				]
			}
		},
		{
			"doubleSided":true,
			"name":"mat_2",
			"pbrMetallicRoughness":{
				"baseColorFactor":[
					0.12213877588510513,
					0.12213877588510513,
					0.12213877588510513,
					1
				]
			}
		},
		{
			"doubleSided":true,
			"name":"mat_3",
			"pbrMetallicRoughness":{
				"baseColorFactor":[
					0.3813260495662689,
					0.3419143855571747,
					0.3049873411655426,
					1
				]
			}
		},
		{
			"doubleSided":true,
			"name":"mat_4",
			"pbrMetallicRoughness":{
				"baseColorFactor":[
					0.44520121812820435,
					0.44520121812820435,
					0.44520121812820435,
					1
				]
			}
		},
		{
			"doubleSided":true,
			"name":"mat_5",
			"pbrMetallicRoughness":{
				"baseColorFactor":[
					0.5906188488006592,
					0.6375969052314758,
					0.8549926280975342,
					1
				]
			}
		},
		{
			"doubleSided":true,
			"name":"mat_6",
			"pbrMetallicRoughness":{
				"baseColorFactor":[
					1,
					1,
					0,
					1
				]
			}
		}
	],
	"meshes":[
		{
			"name":"Link2_UR5_STEP",
			"primitives":[
				{
					"attributes":{
						"POSITION":0,
						"NORMAL":1
					},
					"indices":2,
					"material":0
				},
				{
					"attributes":{
						"POSITION":3,
						"NORMAL":4
					},
					"indices":5,
					"material":1
				},
				{
					"attributes":{
						"POSITION":6,
						"NORMAL":7
					},
					"indices":8,
					"material":2
				},
				{
					"attributes":{
						"POSITION":9,
						"NORMAL":10
					},
					"indices":11,
					"material":3
				},
				{
					"attributes":{
						"POSITION":12,
						"NORMAL":13
					},
					"indices":14,
					"material":4
				},
				{
					"attributes":{
						"POSITION":15,
						"NORMAL":16
					},
					"indices":17,
					"material":5
				},
				{
					"attributes":{
						"POSITION":18,
						"NORMAL":19
					},
					"indices":20,
					"material":6
				}
			]
		}
	],
	"accessors":[
		{
			"bufferView":0,
			"componentType":5126,
			"count":17665,
			"max":[
				0.060074158012866974,
				0.20984171330928802,
				-0.10239999741315842
			],
			"min":[
				-0.060074158012866974,
				0.14657199382781982,
				-0.647599995136261
			],
			"type":"VEC3"
		},
		{
			"bufferView":1,
			"componentType":5126,
			"count":17665,
			"type":"VEC3"
		},
		{
			"bufferView":2,
			"componentType":5123,
			"count":52497,
			"type":"SCALAR"
		},
		{
			"bufferView":3,
			"componentType":5126,
			"count":2639,
			"max":[
				0.05800009146332741,
				0.198835551738739,
				-0.10450000315904617
			],
			"min":[
				-0.05800009146332741,
				0.07440000027418137,
				-0.6455000042915344
			],
			"type":"VEC3"
		},
		{
			"bufferView":4,
			"componentType":5126,
			"count":2639,
			"type":"VEC3"
		},
		{
			"bufferView":5,
			"componentType":5123,
			"count":7854,
			"type":"SCALAR"
		},
		{
			"bufferView":6,
			"componentType":5126,
			"count":2422,
			"max":[
				0.057932816445827484,
				0.19579070806503296,
				-0.22269999980926514
			],
			"min":[
				-0.057932816445827484,
				0.0798092857003212,
				-0.5273000001907349
			],
			"type":"VEC3"
		},
		{
			"bufferView":7,
			"componentType":5126,
			"count":2422,
			"type":"VEC3"
		},
		{
			"bufferView":8,
			"componentType":5123,
			"count":9900,
			"type":"SCALAR"
		},
		{
			"bufferView":9,
			"componentType":5126,
			"count":4346,
			"max":[
				0.05784999951720238,
				0.20057019591331482,
				-0.12363755702972412
			],
			"min":[
				-0.038862444460392,
				0.17433303594589233,
				-0.6263624429702759
			],
			"type":"VEC3"
		},
		{
			"bufferView":10,
			"componentType":5126,
			"count":4346,
			"type":"VEC3"
		},
		{
			"bufferView":11,
			"componentType":5123,
			"count":13599,
			"type":"SCALAR"
		},
		{
			"bufferView":12,
			"componentType":5126,
			"count":1319,
			"max":[
				0.057999998331069946,
				0.19580000638961792,
				-0.2361000031232834
			],
			"min":[
				-0.057999998331069946,
				0.07980000227689743,
				-0.5138999819755554
			],
			"type":"VEC3"
		},
		{
			"bufferView":13,
			"componentType":5126,
			"count":1319,
			"type":"VEC3"
		},
		{
			"bufferView":14,
			"componentType":5123,
			"count":4176,
			"type":"SCALAR"
		},
		{
			"bufferView":15,
			"componentType":5126,
			"count":382,
			"max":[
				0.05572859197854996,
				0.19622203707695007,
				-0.1057664230465889
			],
			"min":[
				-0.05572859197854996,
				0.09809164702892303,
				-0.6442335844039917
			],
			"type":"VEC3"
		},
		{
			"bufferView":16,
			"componentType":5126,
			"count":382,
			"type":"VEC3"
		},
		{
			"bufferView":17,
			"componentType":5123,
			"count":876,
			"type":"SCALAR"
		},
		{
			"bufferView":18,
			"componentType":5126,
			"count":152,
			"max":[
				0.05788664519786835,
				0.198835551738739,
				-0.10450000315904617
			],
			"min":[
				-0.05788664519786835,
				0.14871063828468323,
				-0.6455000042915344
			],
			"type":"VEC3"
		},
		{
			"bufferView":19,
			"componentType":5126,
			"count":152,
			"type":"VEC3"
		},
		{
			"bufferView":20,
			"componentType":5123,
			"count":372,
			"type":"SCALAR"
		}
	],
	"bufferViews":[
		{
			"buffer":0,
			"byteLength":211980,
			"byteOffset":0,
			"target":34962
		},
		{
			"buffer":0,
			"byteLength":211980,
			"byteOffset":211980,
			"target":34962
		},
		{
			"buffer":0,
			"byteLength":104994,
			"byteOffset":423960,
			"target":34963
		},
		{
			"buffer":0,
			"byteLength":31668,
			"byteOffset":528956,
			"target":34962
		},
		{
			"buffer":0,
			"byteLength":31668,
			"byteOffset":560624,
			"target":34962
		},
		{
			"buffer":0,
			"byteLength":15708,
			"byteOffset":592292,
			"target":34963
		},
		{
			"buffer":0,
			"byteLength":29064,
			"byteOffset":608000,
			"target":34962
		},
		{
			"buffer":0,
			"byteLength":29064,
			"byteOffset":637064,
			"target":34962
		},
		{
			"buffer":0,
			"byteLength":19800,
			"byteOffset":666128,
			"target":34963
		},
		{
			"buffer":0,
			"byteLength":52152,
			"byteOffset":685928,
			"target":34962
		},
		{
			"buffer":0,
			"byteLength":52152,
			"byteOffset":738080,
			"target":34962
		},
		{
			"buffer":0,
			"byteLength":27198,
			"byteOffset":790232,
			"target":34963
		},
		{
			"buffer":0,
			"byteLength":15828,
			"byteOffset":817432,
			"target":34962
		},
		{
			"buffer":0,
			"byteLength":15828,
			"byteOffset":833260,
			"target":34962
		},
		{
			"buffer":0,
			"byteLength":8352,
			"byteOffset":849088,
			"target":34963
		},
		{
			"buffer":0,
			"byteLength":4584,
			"byteOffset":857440,
			"target":34962
		},
		{
			"buffer":0,
			"byteLength":4584,
			"byteOffset":862024,
			"target":34962
		},
		{
			"buffer":0,
			"byteLength":1752,
			"byteOffset":866608,
			"target":34963
		},
		{
			"buffer":0,
			"byteLength":1824,
			"byteOffset":868360,
			"target":34962
		},
		{
			"buffer":0,
			"byteLength":1824,
			"byteOffset":870184,
			"target":34962
		},
		{
			"buffer":0,
			"byteLength":744,
			"byteOffset":872008,
			"target":34963
		}
	],
	"buffers":[
		{
			"byteLength":872752,
			"uri":"UR5e_j2.bin"
		}
	]
}
